<?xml version="1.0" encoding="UTF-8"?>
<svg width="88px" height="98px" viewBox="0 0 88 98" version="1.1" xmlns="http://www.w3.org/2000/svg" xmlns:xlink="http://www.w3.org/1999/xlink">
    <!-- Generator: sketchtool 60 (101010) - https://sketch.com -->
    <title>8EA983BA-5E48-489D-8F1C-4A9052B17468</title>
    <desc>Created with sketchtool.</desc>
    <defs>
        <path d="M17.9712232,48.6000006 C17.4806346,48.3724142 17.0694038,48.0053123 16.7898308,47.5453825 C12.2358327,41.1544937 7.64752036,34.7879048 3.11803251,28.377576 C1.39296137,25.9174843 0.348430838,23.0520718 0.0885698512,20.0669905 C-0.676148877,12.2910041 3.56411843,4.8114772 10.7554157,1.7253826 C17.7359251,-1.27323216 24.3291731,-0.359553755 30.2312331,4.43725786 C33.825716,7.33451185 36.1083162,11.5317654 36.5744769,16.1012375 C37.1610997,20.6462875 35.9604051,25.2407931 33.2214794,28.931615 C28.8129086,35.0876043 24.4010698,41.2549335 19.9859629,47.4336027 C19.6989408,47.939628 19.2627885,48.3466029 18.7359419,48.6000006 L17.9712232,48.6000006 Z" id="path-1"></path>
    </defs>
    <g id="Page-1" stroke="none" stroke-width="1" fill="none" fill-rule="evenodd">
        <g id="City_Sccoters_1.3" transform="translate(-1143.000000, -203.000000)">
            <g id="Décomposé" transform="translate(1169.000000, 226.000000)">
                <g id="Masque">
                    <use fill="#ffffff" fill-rule="evenodd" xlink:href="#path-1"></use>
                </g>
            </g>
        </g>
    </g>
</svg>
