<svg xmlns="http://www.w3.org/2000/svg" xmlns:xlink="http://www.w3.org/1999/xlink" width="1200" height="1200">
  <svg fill="#FFF" xmlns="http://www.w3.org/2000/svg" viewBox="0 0 100 100" transform="matrix(.69 0 0 .69 186 186)">
    <path style="text-indent:0;text-transform:none;block-progression:tb" d="M43.563 5c-1.24.124-2.346 1.1-2.626 2.313l-2.343 10a34.604 34.604 0 0 0-3.625 1.5l-8.75-5.407c-1.139-.696-2.744-.506-3.688.438L13.813 22.5c-.959.948-1.15 2.574-.438 3.719l5.438 8.812a34.418 34.418 0 0 0-1.438 3.5L7.312 40.906c-1.309.309-2.32 1.592-2.312 2.938v12.281c-.008 1.345 1.003 2.63 2.313 2.938l10.03 2.343c.437 1.23.94 2.41 1.5 3.563l-5.468 8.781c-.712 1.144-.52 2.771.438 3.719l8.718 8.687c.944.944 2.55 1.134 3.688.438L35 81.156a34.602 34.602 0 0 0 3.594 1.5l2.343 10c.294 1.31 1.564 2.334 2.907 2.344h12.312c1.343-.01 2.613-1.033 2.907-2.344l2.343-10a34.594 34.594 0 0 0 3.625-1.5l8.75 5.438c1.139.696 2.744.506 3.688-.438l8.687-8.687c.959-.948 1.15-2.575.438-3.719L81.156 65a34.582 34.582 0 0 0 1.5-3.594l10.031-2.343c1.31-.309 2.32-1.593 2.313-2.938V43.844c.008-1.346-1.003-2.63-2.313-2.938l-10.03-2.343a34.313 34.313 0 0 0-1.5-3.563l5.437-8.781c.712-1.145.52-2.771-.438-3.719l-8.687-8.656c-.944-.944-2.55-1.134-3.688-.438l-8.719 5.406a34.588 34.588 0 0 0-3.656-1.5l-2.343-10C58.755 6.014 57.49 5.006 56.156 5H43.563zm2.656 6h7.562l2.125 9.156A3.063 3.063 0 0 0 58 22.375c2.066.597 4.034 1.39 5.875 2.406a3.063 3.063 0 0 0 3.031-.062l8-4.969 5.313 5.313-4.938 8.03c-.563.898-.6 2.101-.094 3.032A28.794 28.794 0 0 1 77.626 42a3.062 3.062 0 0 0 2.188 2.063L89 46.218v7.531l-9.188 2.156A3.063 3.063 0 0 0 77.626 58a28.533 28.533 0 0 1-2.438 5.844c-.507.93-.47 2.134.094 3.031l4.938 8.031-5.313 5.344-8.031-5a3.063 3.063 0 0 0-3.031-.063A28.563 28.563 0 0 1 58 77.626a3.063 3.063 0 0 0-2.094 2.188L53.75 89h-7.5l-2.156-9.188A3.063 3.063 0 0 0 42 77.626c-2.025-.585-3.961-1.42-5.813-2.438a3.063 3.063 0 0 0-3.03.063l-8.063 5-5.344-5.344 4.969-8.062c.563-.898.6-2.1.093-3.031-1.017-1.852-1.852-3.788-2.437-5.813a3.063 3.063 0 0 0-2.188-2.094L11 53.75v-7.531l9.219-2.188a3.062 3.062 0 0 0 2.187-2.062c.595-2.048 1.387-4.013 2.375-5.813a3.061 3.061 0 0 0-.062-3l-4.969-8.093 5.344-5.313 8.031 4.969a3.063 3.063 0 0 0 3.031.062A28.429 28.429 0 0 1 42 22.375a3.063 3.063 0 0 0 2.094-2.219zM50 31c-10.458 0-19 8.542-19 19s8.542 19 19 19 19-8.542 19-19-8.542-19-19-19zm0 6c7.215 0 13 5.785 13 13s-5.785 13-13 13-13-5.785-13-13 5.785-13 13-13z" overflow="visible" color="#000"/>
  </svg>
</svg>
