<?xml version="1.0" encoding="UTF-8" standalone="no"?>
<!-- Created with Inkscape (http://www.inkscape.org/) -->

<svg
   xmlns:dc="http://purl.org/dc/elements/1.1/"
   xmlns:cc="http://creativecommons.org/ns#"
   xmlns:rdf="http://www.w3.org/1999/02/22-rdf-syntax-ns#"
   xmlns:svg="http://www.w3.org/2000/svg"
   xmlns="http://www.w3.org/2000/svg"
   xmlns:sodipodi="http://sodipodi.sourceforge.net/DTD/sodipodi-0.dtd"
   xmlns:inkscape="http://www.inkscape.org/namespaces/inkscape"
   width="572.34375"
   height="525.34882"
   id="svg2"
   version="1.1"
   inkscape:version="0.48.2 r9819"
   sodipodi:docname="Upright urban bicyclist.svg">
  <defs
     id="defs4" />
  <sodipodi:namedview
     id="base"
     pagecolor="#ffffff"
     bordercolor="#666666"
     borderopacity="1.0"
     inkscape:pageopacity="0.0"
     inkscape:pageshadow="2"
     inkscape:zoom="1"
     inkscape:cx="438.50082"
     inkscape:cy="185.7936"
     inkscape:document-units="px"
     inkscape:current-layer="layer1"
     showgrid="false"
     fit-margin-top="1"
     fit-margin-left="1"
     fit-margin-right="1"
     fit-margin-bottom="1"
     inkscape:window-width="1680"
     inkscape:window-height="1028"
     inkscape:window-x="1358"
     inkscape:window-y="-8"
     inkscape:window-maximized="1" />
  <metadata
     id="metadata7">
    <rdf:RDF>
      <cc:Work
         rdf:about="">
        <dc:format>image/svg+xml</dc:format>
        <dc:type
           rdf:resource="http://purl.org/dc/dcmitype/StillImage" />
        <dc:title></dc:title>
      </cc:Work>
    </rdf:RDF>
  </metadata>
  <g
     inkscape:label="Layer 1"
     inkscape:groupmode="layer"
     id="layer1"
     transform="translate(-109.90625,-237.68242)">
    <path
       style="fill:#fff;stroke:#fff;stroke-width:1;stroke-linecap:round;stroke-linejoin:round;stroke-miterlimit:4;stroke-dasharray:none;stroke-dashoffset:0"
       d="m 230,524.34375 c -65.50221,0 -118.59375,53.09154 -118.59375,118.59375 0,65.50221 53.09154,118.59375 118.59375,118.59375 65.50221,0 118.59375,-53.09154 118.59375,-118.59375 0,-65.50221 -53.09154,-118.59375 -118.59375,-118.59375 z M 230,550 c 51.32596,0 92.9375,41.61154 92.9375,92.9375 0,51.32596 -41.61154,92.9375 -92.9375,92.9375 -51.32596,0 -92.9375,-41.61154 -92.9375,-92.9375 C 137.0625,591.61154 178.67404,550 230,550 z"
       id="path2998"
       inkscape:connector-curvature="0" />
    <path
       inkscape:connector-curvature="0"
       style="fill:#fff;stroke:#fff;stroke-width:1;stroke-linecap:round;stroke-linejoin:round;stroke-miterlimit:4;stroke-dasharray:none;stroke-dashoffset:0"
       d="m 562.14285,524.34375 c -65.50221,0 -118.59375,53.09154 -118.59375,118.59375 0,65.50221 53.09154,118.59375 118.59375,118.59375 65.50221,0 118.59375,-53.09154 118.59375,-118.59375 0,-65.50221 -53.09154,-118.59375 -118.59375,-118.59375 z m 0,25.65625 c 51.32596,0 92.9375,41.61154 92.9375,92.9375 0,51.32596 -41.61154,92.9375 -92.9375,92.9375 -51.32596,0 -92.9375,-41.61154 -92.9375,-92.9375 0,-51.32596 41.61154,-92.9375 92.9375,-92.9375 z"
       id="path2998-7" />
    <path
       style="fill:#fff;stroke:#fff"
       d="m 314.02707,609.33135 33.82427,-17.77176 c 14.55493,-7.64737 33.69518,-25.39086 32.61623,-26.41358 -0.82274,-0.77987 -97.14047,-60.07004 -103.15488,-63.49891 -6.8538,-3.90741 -11.25566,-8.7287 -14.72757,-16.13089 -2.56992,-68.39659 0.0775,0.0606 -2.60111,-68.06666 -0.45157,-53.68286 -1.71559,-48.72349 3.292,-69.20802 5.58403,-11.34278 15.14232,-17.75892 27.60322,-18.52908 8.30382,-0.51322 15.99026,1.87678 22.80868,7.09207 66.54731,72.22182 -0.099,-0.0864 66.3695,72.12019 85.60208,16.16852 -0.20304,0.18652 85.65277,16.03368 3.9489,1.03864 8.5945,7.92577 10.2981,12.20253 38.3801,96.35058 -0.007,-0.16477 38.1418,96.42371 10.4424,15.08601 23.78882,48.20914 39.60797,74.72435 14.93316,25.03016 23.21807,23.39303 25.54479,35.50882 1.29002,6.71746 -11.01163,16.05581 -18.91962,12.02831 -9.01742,-4.59253 -49.08388,-56.94192 -77.22624,-121.87553 -7.28092,-14.62188 -12.09276,-29.63087 -19.12334,-44.27229 -8.24471,18.96424 -19.06962,39.32613 -29.21109,53.88681 l -8.649,12.31841 -3.2858,17.53353 c -1.80719,9.64345 -8.05581,43.40854 -13.88582,75.03354 -7.54878,40.94851 -11.12124,58.21726 -12.41074,59.99176 -4.01053,5.51896 -14.19639,4.4853 -15.72258,-1.59552 -0.36735,-1.46363 0.27639,-26.32099 1.43053,-55.23858 1.15415,-28.91758 1.93365,-52.74221 1.73225,-52.94362 -0.20141,-0.20141 -4.11947,2.49052 -8.70679,5.98207 -9.82581,7.34864 -19.35887,13.39938 -29.64518,19.98208 -43.82428,28.04526 -104.54972,40.96923 -125.25349,32.74625 -10.48487,-4.16432 -14.8857,-26.41626 5.22536,-26.6465 34.264,-0.39227 55.60137,-4.19702 88.37578,-21.41717 z M 441.28528,473.47058 c 4.40594,-13.08092 8.38773,-29.47767 7.39857,-30.46683 -74.15844,-0.32539 0.14623,0.008 -74.1946,-0.43933 -47.75661,-32.64814 -0.008,0.11802 -47.53836,-33.09384 -0.25678,0 -0.46688,11.14094 -0.46688,24.75766 l 0,24.75765 28.68232,24.49235 c 15.77527,13.47078 34.78777,29.76296 42.25,36.20482 7.46222,6.44186 13.61243,11.72936 13.66712,11.75 11.67071,-17.08535 23.26657,-37.88336 30.20183,-57.96248 z"
       inkscape:connector-curvature="0"
       sodipodi:nodetypes="sssscccscccscsssccccssssscccsssccccscsscc" />
    <path
       sodipodi:type="arc"
       style="fill:#fff;fill-opacity:1;stroke:#fff;stroke-width:1;stroke-linecap:round;stroke-linejoin:round;stroke-miterlimit:4;stroke-dasharray:none;stroke-dashoffset:0"
       id="path3830"
       sodipodi:cx="275.01404"
       sodipodi:cy="281.36325"
       sodipodi:rx="41.668793"
       sodipodi:ry="41.668793"
       d="m 316.68283,281.36325 c 0,23.01304 -18.65575,41.66879 -41.66879,41.66879 -23.01304,0 -41.66879,-18.65575 -41.66879,-41.66879 0,-23.01304 18.65575,-41.66879 41.66879,-41.66879 23.01304,0 41.66879,18.65575 41.66879,41.66879 z"
       transform="translate(22.728432,-0.50507627)" />
    <path
       style="fill:#fff;stroke:#fff"
       d="m 529.81733,507.72399 c -1.8859,-0.96165 -4.2266,-2.87345 -5.2016,-4.24845 -1.965,-2.77137 -16.8717,-60.62026 -16.8657,-65.45191 0,-1.67645 0.8821,-4.48874 1.9558,-6.24954 3.8609,-6.33211 3.5958,-6.29855 49.7564,-6.29855 38.5879,0 42.0782,0.14103 45.2224,1.82727 3.5491,1.90342 7.0616,7.19622 7.0616,10.64076 0,4.24766 -11.2747,61.20768 -12.7339,64.33185 -0.92,1.9697 -3.0822,4.08597 -5.3638,5.25 -3.5236,1.79758 -6.0355,1.95 -32.1124,1.94857 -24.9571,-0.001 -28.6938,-0.20754 -31.7188,-1.75 z"
       id="path3816"
       inkscape:connector-curvature="0"
       sodipodi:nodetypes="scccssssccs" />
  </g>
</svg>
