<svg xmlns="http://www.w3.org/2000/svg" viewBox="0 0 125.44 42.88">
  <path fill="#677fb7" d="M82.04 31.58v-.11a.87.87 0 0 0-.64-.77 8.32 8.32 0 0 0-.04-.18.87.87 0 0 0 .25-.96.96.96 0 0 0-.23-.38c-.15-.19-.3-.4-.42-.62a1.75 1.75 0 0 1-.2-.86.87.87 0 0 0-.79-.96l-.05-.14a.9.9 0 0 0 .29-.9.86.86 0 0 0-.18-.33 1.94 1.94 0 0 1-.29-1.52.86.86 0 0 0 .04-.38.9.9 0 0 0-.58-.72v-.15a.9.9 0 0 0 .48-.88.87.87 0 0 0-.09-.29c-.17-.49-.15-1.08.1-1.53.08-.11.12-.23.14-.36a.9.9 0 0 0-.39-.85l.03-.15a.87.87 0 0 0 .66-1.05c-.06-.53.08-1.1.42-1.5a.87.87 0 0 0-.03-1.25l.06-.15a.9.9 0 0 0 .52-.22.7.7 0 0 0 .25-.3.96.96 0 0 0 .08-.44c.02-.57.18-1.21.45-1.7a.96.96 0 0 0 .15-.42.87.87 0 0 0-.46-.9v-.08-.09c.3-.15.5-.48.46-.9a.95.95 0 0 0-.15-.4 4.03 4.03 0 0 1-.46-1.71c.01-.15-.01-.3-.07-.43a.87.87 0 0 0-.83-.55l-.09-.16a.87.87 0 0 0-.04-1 .96.96 0 0 0-.33-.28 4.5 4.5 0 0 1-1.24-1.27.96.96 0 0 0-.28-.34.87.87 0 0 0-1-.07l-.14-.1v.01a.87.87 0 0 0-.54-.85.95.95 0 0 0-.42-.08 4.02 4.02 0 0 1-1.7-.5.96.96 0 0 0-.4-.16.87.87 0 0 0-.91.43h-.17a.79.79 0 0 0-.14-.2.91.91 0 0 0-.75-.28.96.96 0 0 0-.41.13c-.53.25-1.16.42-1.72.41a.96.96 0 0 0-.44.07.87.87 0 0 0-.57.81l-.16.09a.87.87 0 0 0-1 .01.96.96 0 0 0-.3.32 4.44 4.44 0 0 1-1.3 1.2.96.96 0 0 0-.34.28.87.87 0 0 0-.1 1l-.09.14a.87.87 0 0 0-.86.51.95.95 0 0 0-.1.43c-.05.57-.23 1.2-.54 1.68a.96.96 0 0 0-.16.4c-.07.4.11.75.4.92v.17c-.17.07-.3.2-.4.36a.95.95 0 0 0 .02.93c.23.53.38 1.17.36 1.73-.02.15 0 .3.05.44.14.37.48.6.81.6l.04.1a.9.9 0 0 0-.24.9c.04.13.1.24.2.34.31.43.47 1 .38 1.51a.87.87 0 0 0 .62 1.07l.03.16a.9.9 0 0 0-.4.84c.01.13.06.25.13.36.23.48.28 1.07.1 1.56a.87.87 0 0 0-.08.44c.02.31.22.58.5.72l-.01.16a.9.9 0 0 0-.55.76c0 .13.01.26.06.38a2 2 0 0 1-.2 1.54.86.86 0 0 0-.15.35.9.9 0 0 0 .33.86l-.04.16a.9.9 0 0 0-.7.62.86.86 0 0 0-.01.38 2 2 0 0 1-.3 1.14l-.25.29c-.11.1-.2.22-.25.36a.87.87 0 0 0 .22.98l-.04.17a.87.87 0 0 0-.67.75c-.02.15 0 .3.04.44a4.47 4.47 0 0 1 .02 1.77.96.96 0 0 0-.04.44c.07.4.35.67.67.73l.05.18a.87.87 0 0 0-.2.97c.05.14.14.26.25.36.38.43.72.99.87 1.53.03.15.1.28.19.4.26.33.63.42.95.32l.12.12c-.1.32 0 .7.31.96.12.1.25.16.4.19.54.18 1.12.5 1.52.9.1.1.22.19.35.25.38.15.75.05.98-.2l.18.06c.06.32.32.6.72.67.15.03.3.02.44-.02a4.5 4.5 0 0 1 1.77.03c.14.05.3.07.44.05.4-.06.68-.33.76-.65l.17-.04c.22.24.59.36.97.22a.95.95 0 0 0 .37-.24c.43-.37 1-.7 1.55-.84a.96.96 0 0 0 .4-.17.87.87 0 0 0 .34-.94l.13-.12c.1.04.2.05.32.05a.96.96 0 0 0 .85-.72c.2-.55.52-1.11.93-1.5.11-.1.2-.22.26-.35a.87.87 0 0 0-.16-.98l.06-.18a.87.87 0 0 0 .69-.7.96.96 0 0 0-.02-.44 4.41 4.41 0 0 1 .09-1.77c.03-.1.06-.22.06-.33zm-.41-.02c0 .26-.2.46-.43.47a.48.48 0 0 1-.5-.42.48.48 0 0 1 .4-.51.46.46 0 0 1 .53.46zm0-20.15l-.01.06a.46.46 0 0 1-.53.4.48.48 0 0 1-.4-.5.48.48 0 0 1 .5-.42c.25 0 .43.2.43.46zm0-1.76c0 .25-.2.45-.43.46a.48.48 0 0 1-.5-.41.48.48 0 0 1 .4-.52c.24-.04.49.14.52.41v.06zm-.11 24.28l-.01.1a.46.46 0 0 1-.56.37.48.48 0 0 1-.35-.55c.05-.23.28-.4.53-.37.22.03.39.22.39.45zm-.12-23.42zm0 .04zm-.08-.03h-.02.02zm-.07 19.32c0 .2-.13.39-.33.44a.48.48 0 0 1-.57-.3.48.48 0 0 1 .27-.59c.24-.1.52.03.6.3l.03.15zm-.03.83zm-.01-.05zm-.08.03l-.02.01h.02zm0 .02h-.02.02zm0 4.16h-.01zm-.1 0zm0-4.14h-.04.03zm-.01-20.18zm0 24.37H81zm0-21.17a.5.5 0 0 1-.44.48c-.07 0-.15 0-.23-.04a.45.45 0 0 1-.19-.14.5.5 0 0 1-.04-.47c.1-.22.36-.34.6-.26.18.07.3.24.3.43zM81 7.35c0 .2-.11.36-.3.43a.48.48 0 0 1-.6-.26c-.09-.21 0-.49.24-.6a.46.46 0 0 1 .62.24.5.5 0 0 1 .04.2zm-.02 28.27a.5.5 0 0 1-.04.2.46.46 0 0 1-.63.23.48.48 0 0 1-.22-.6c.1-.23.36-.35.6-.26.18.07.29.24.29.43zm-.04-.8h-.03.03zm-.01.02h-.02.02zm0-4.13l-.03.01h.02zm-.01 0h-.02.02zm-.09.04h-.01.01zm0-20.22v.08a.91.91 0 0 0-.55.7c-.01.13 0 .25.04.36.15.5.03.99-.37 1.41a.82.82 0 0 0-.28.67c.01.2.1.4.22.56l-.06.18a.88.88 0 0 0-.75.61.92.92 0 0 0-.04.41c.05.58-.08 1.06-.45 1.6a.92.92 0 0 0-.18.38c-.08.37.07.72.34.92l-.03.16a.87.87 0 0 0-.63.74c-.02.14 0 .28.04.41.16.57.13 1.06-.11 1.69a.92.92 0 0 0-.1.4c0 .4.23.7.54.82l.01.17c-.29.16-.47.5-.43.88.02.14.07.27.14.39.3.5.4 1 .31 1.66a.93.93 0 0 0 .01.41c.1.37.39.61.72.66l.05.17a.88.88 0 0 0-.22.94c.05.14.13.26.23.35.24.26.41.52.52.83.08.2.11.42.11.66a.8.8 0 0 0 .04.36c.1.29.37.52.69.58l.03.15a.91.91 0 0 0-.39.81c.02.12.06.24.12.34.07.13.12.27.15.4.07.34 0 .7-.21 1.05a.82.82 0 0 0-.15.33c-.06.3.06.64.32.85l-.05.14a.91.91 0 0 0-.75.52.82.82 0 0 0-.06.35c-.01.52-.27.95-.77 1.24a.82.82 0 0 0-.49.8c0 .1.02.2.06.3l-.11.1a.91.91 0 0 0-.9.09.82.82 0 0 0-.23.27c-.27.45-.7.7-1.29.7a.82.82 0 0 0-.36.04.91.91 0 0 0-.56.71l-.14.04a.91.91 0 0 0-.83-.38.82.82 0 0 0-.33.13c-.2.11-.39.18-.6.19a1.5 1.5 0 0 1-.85-.22.82.82 0 0 0-.34-.14.91.91 0 0 0-.84.34l-.14-.04a.91.91 0 0 0-.54-.73.82.82 0 0 0-.35-.06 1.4 1.4 0 0 1-1.26-.74.82.82 0 0 0-.22-.28.9.9 0 0 0-.9-.12 7.81 7.81 0 0 1-.1-.1.91.91 0 0 0-.1-.9.82.82 0 0 0-.29-.22 1.4 1.4 0 0 1-.72-1.27c.01-.12 0-.24-.05-.36a.91.91 0 0 0-.73-.54 7.4 7.4 0 0 1-.04-.14c.26-.2.4-.54.35-.84a.82.82 0 0 0-.13-.33c-.16-.25-.23-.5-.22-.78.02-.22.08-.45.2-.67.07-.1.12-.22.14-.34a.91.91 0 0 0-.36-.83l.04-.15c.32-.05.6-.27.7-.55a.82.82 0 0 0 .06-.36c-.01-.13 0-.25.03-.37.08-.42.26-.8.57-1.2.1-.1.17-.23.2-.37a.88.88 0 0 0-.27-.93l.04-.17c.33-.07.6-.33.67-.7a.92.92 0 0 0-.01-.42 2.38 2.38 0 0 1 .22-1.66.92.92 0 0 0 .12-.4.88.88 0 0 0-.47-.85v-.17c.3-.13.5-.4.52-.75v-.07a.92.92 0 0 0-.1-.4 2.33 2.33 0 0 1-.1-1.67.92.92 0 0 0 .05-.41.88.88 0 0 0-.62-.75l-.02-.17a.88.88 0 0 0 .35-.9.92.92 0 0 0-.17-.38 2.33 2.33 0 0 1-.4-1.62.92.92 0 0 0-.03-.41.88.88 0 0 0-.75-.62l-.05-.15v-.02c.2-.26.27-.6.16-.91a.82.82 0 0 0-.2-.3 1.4 1.4 0 0 1-.3-1.43.82.82 0 0 0-.08-.76.98.98 0 0 0-.38-.33l.01-.15c.3-.12.54-.38.59-.68a.82.82 0 0 0-.02-.36c-.12-.5.02-.98.45-1.39.1-.08.17-.17.22-.28a.91.91 0 0 0-.09-.9l.08-.13c.33.06.67-.06.86-.3.07-.1.12-.2.15-.33.05-.15.11-.3.2-.42.19-.27.48-.46.87-.56a.82.82 0 0 0 .34-.13c.25-.17.4-.5.37-.83l.13-.07c.25.21.6.28.9.16a.82.82 0 0 0 .29-.2 1.4 1.4 0 0 1 1.42-.34.82.82 0 0 0 .95-.28c.05-.06.09-.13.12-.2h.16c.12.3.4.53.7.57.11.02.23 0 .35-.03.5-.13.98 0 1.4.41.08.1.18.17.29.22.27.13.63.09.9-.11l.12.08c-.04.32.09.66.33.84.1.07.2.12.33.15.23.06.42.16.58.3.2.18.35.43.43.74.02.12.07.23.14.33.18.25.5.39.84.35l.07.13a.91.91 0 0 0-.14.9c.05.1.12.2.22.29.37.36.5.84.37 1.4a.82.82 0 0 0-.04.36c.04.3.25.58.55.71v.08zm0 20.18h-.02.01zm0 4.09h-.03.02zm-.1-.03zm-.08-.04zm-.28-19.35c0 .05 0 .1-.02.14a.47.47 0 0 1-.59.3.46.46 0 0 1-.3-.6.46.46 0 0 1 .6-.29c.2.07.32.26.31.45zm0-9.02zm-.03 21.28c0 .18-.12.35-.3.42a.46.46 0 0 1-.6-.29.46.46 0 0 1 .28-.6.47.47 0 0 1 .62.47zm-.01-21.17zm-.02-.04h-.01zm-.01 8.14h-.02.02zm0 .01h-.01zm-.06-8.08h-.01.01zm0-.02l-.02.02.02-.02zm-.1-.67c0 .15-.07.3-.21.38a.48.48 0 0 1-.64-.12.48.48 0 0 1 .1-.64c.2-.16.5-.12.66.1.06.09.09.18.09.28zm-.02 8.69l-.01-.01h.01zm-.01.01h-.02.02zm-.04-7.91l-.02.01.02-.01zm0-.01h-.02.01zm-.08.07zm-.02 7.72h-.01zm-.16 11.56a.46.46 0 0 1-.91.1.46.46 0 0 1 .34-.57.47.47 0 0 1 .57.47zm-.04.76zm-.04-9l-.01.08c-.06.25-.3.41-.55.36a.46.46 0 0 1-.36-.56.46.46 0 0 1 .92.11zm0 19.94c0 .1-.05.22-.13.31a.46.46 0 0 1-.66.05.48.48 0 0 1-.04-.65.48.48 0 0 1 .65-.06c.11.08.17.21.17.35zm-.04-10.9zm-.07.03h-.02l-.03.01h.02l.03-.01zm-.12.04zm0-.01h-.02.02zm-.08.05zm0-7.41v.05a.47.47 0 0 1-.52.4.46.46 0 0 1-.4-.53.46.46 0 0 1 .52-.4c.24.04.4.25.4.48zm-.01 7.37h-.02.02zm-.04-3.24c0 .23-.16.43-.4.47a.46.46 0 0 1-.52-.41.46.46 0 0 1 .41-.52.47.47 0 0 1 .51.46zm-.06 3.24zm-.02-8.25h-.02.02zm-.03 3.25c0 .24-.2.46-.45.47a.46.46 0 0 1-.47-.47v-.09a.46.46 0 0 1 .46-.38.47.47 0 0 1 .46.47zm-.05-3.25h-.03.03zm-.08 0h-.04l-.02-.01h.06zm-.1 4.14h-.02.02zM79 18.53h-.02.02zm0 .01h-.02.02zm-.06 4.15h-.02.02zm0-.01h-.02.02zm-.03-4.18h-.01.01zm0 .04zm-.08-.08h-.01zm-.04 19.96zm-.03.04v-.02.02zm-.02-15.76h-.02.02zm0 0h-.02.01zm-.02 15.67l-.01-.01h.01zm-.01 0zm-.07-15.64zm0-.05h-.01.01zm-.06 15.54l-.01-.02.01.02zm0 0h-.02.01zm-.02-15.46zm-.03 15.38v-.01.01zm-.03.03h-.01.01zm-.02-34.08c0 .1-.03.21-.1.3a.48.48 0 0 1-.65.07.48.48 0 0 1-.1-.64.46.46 0 0 1 .66-.1c.12.1.19.24.19.37zm-.05 34.77c0 .14-.06.28-.2.37a.46.46 0 0 1-.65-.1.48.48 0 0 1 .1-.64c.2-.14.49-.12.65.08.07.08.1.19.1.3zm-.96-35.48zm-.07.06l-.01.01.01-.01zm0 7.09a4.29 4.29 0 0 0-4.3-4.29 4.29 4.29 0 0 0-4.28 4.29 4.29 4.29 0 0 0 4.29 4.29 4.29 4.29 0 0 0 4.28-4.29zm0 21.8a4.29 4.29 0 0 0-4.3-4.29 4.29 4.29 0 0 0-4.28 4.29 4.29 4.29 0 0 0 4.29 4.29 4.29 4.29 0 0 0 4.28-4.3zm-.03-29zm-.02.09zm-.01.09zm-.02 0zm-.09.17l-.01.03.01-.03zm-.27-.5c0 .07-.01.15-.05.22a.48.48 0 0 1-.61.21.48.48 0 0 1-.24-.6c.1-.24.37-.36.62-.24.18.08.28.24.28.4zm-.56 7.35a3.3 3.3 0 0 1-3.3 3.3 3.3 3.3 0 0 1-3.29-3.3 3.3 3.3 0 0 1 3.3-3.3 3.3 3.3 0 0 1 3.3 3.3zm0 21.8a3.3 3.3 0 0 1-3.3 3.3 3.3 3.3 0 0 1-3.29-3.3 3.3 3.3 0 0 1 3.3-3.3 3.3 3.3 0 0 1 3.3 3.3zM76.34 40c0 .18-.11.35-.3.42a.46.46 0 0 1-.61-.28.48.48 0 0 1 .28-.59c.23-.08.5.03.6.27.02.05.04.12.03.18zm-1.2.51zm-.04-.08zm-.04-.08v-.01.01zm-.01.09zm0-.08v-.02.02zm-.02-.1v-.01l-.01-.02v.03zm-.02-.1v-.02.01zM74.68 2.5v.1a.48.48 0 0 1-.53.37.48.48 0 0 1-.4-.5.46.46 0 0 1 .53-.41c.24.03.4.23.4.44zm-.05 37.93c0 .21-.17.4-.41.44a.46.46 0 0 1-.53-.41.48.48 0 0 1 .4-.5.48.48 0 0 1 .54.47zm-1.3-37.99v-.01.01zm0-.09v-.02.02zm0 .18l-.01.03v-.03zm-.01-.27l-.01-.02v.02zm-.01.36zm-.02-.45v-.01.01zm-.01.54v0zm-.37-.27c.01.26-.19.47-.42.49a.48.48 0 0 1-.51-.4.46.46 0 0 1 .43-.52c.28-.03.5.18.5.43zm-.67 37.94a.46.46 0 0 1-.55.44.46.46 0 0 1-.38-.55c.06-.25.3-.4.54-.36.22.04.4.24.4.47zm-1.3-.41v0zm0 .09v0zm-.02.08v.02l-.01.02v-.01-.03zm-.03.12v0zm-.01.1zm0-.1v0zm-.05.08v.01zM70.6 3c0 .2-.11.38-.3.45a.48.48 0 0 1-.6-.24c-.1-.23 0-.52.27-.62a.46.46 0 0 1 .63.4zm-.05 36.9a.46.46 0 0 1-.64.4.46.46 0 0 1-.25-.61c.1-.23.38-.33.6-.24.18.07.3.26.29.45zM69.4 3.57zm-.02-.08v-.02.02zm-.01 0v-.01.02zm-.03-.07l-.02-.03v-.01.01l.02.03zm-.06-.11v-.02.02zm0 0l-.02-.01.01.01zm-.03-.1zm-.04.02zm-.18.63c0 .15-.08.29-.2.37-.2.13-.5.1-.65-.1a.46.46 0 0 1 .13-.67.46.46 0 0 1 .72.4zm-.55 34.84c0 .09-.03.18-.09.25a.46.46 0 0 1-.66.08.46.46 0 0 1-.07-.67c.18-.18.47-.2.65-.05.12.1.18.24.17.39zm-.85-17.27a.46.46 0 0 1-.46.47.47.47 0 0 1-.01-.93c.25 0 .47.2.47.46zm-.05 1.76v.05a.46.46 0 0 1-.5.44.47.47 0 0 1-.43-.5.47.47 0 0 1 .5-.44c.23.01.42.2.43.45zm-.1-4.14c0 .24-.17.44-.41.47a.47.47 0 0 1-.11-.94.46.46 0 0 1 .52.47zm-.04 3.23zm0 15.72h-.01zm-.08-15.65h-.01zm0-.04h-.01zm-.05 15.82zm-.02 0l-.01.02.01-.01zm-.02-15.8h-.02.02zm0-16.9c.01.11-.02.23-.1.32a.48.48 0 0 1-.64.09.46.46 0 0 1-.08-.67.46.46 0 0 1 .82.25zm0 20.14l-.01.1a.46.46 0 0 1-.55.37.47.47 0 0 1-.36-.54.47.47 0 0 1 .54-.38c.22.04.38.23.38.45zm0-3.25h-.02.02zm-.03 15.14a.46.46 0 0 1-.82.24.46.46 0 0 1 .08-.66c.2-.15.5-.1.64.09.08.09.1.2.1.33zM67.2 17.3c0 .22-.16.41-.38.45a.47.47 0 0 1-.18-.92.46.46 0 0 1 .56.47zm-.11.86h-.02.02zm-.03 4.15h-.02.02zm0 0h-.02.01zM67 18.17h-.02.02zm0-.01h-.02.01zm-.04 4.15h-.01.01zm0 .04h-.01zm-.1-.07zm-.02 5.02c0 .05 0 .1-.02.14a.46.46 0 0 1-.58.32.47.47 0 0 1-.3-.58.47.47 0 0 1 .56-.32c.2.06.34.24.34.44zm-.05-9.1h-.02.02zm0 0h-.01.01zm0 8.33zm-.08-.05h-.01.01zm0 .01h-.02.02zm0-8.26h-.02.01zm-.01-.04h-.02.02zm-.08.08h-.01zm0-3.28c0 .2-.14.4-.34.45a.47.47 0 0 1-.28-.9c.25-.08.51.06.59.31.02.05.02.1.02.14zm-.02 3.19zm-.09 8.25zm0 .01h-.01.01zm-.07-20.12V6.3zm-.01 20.07h-.01zm-.01.04h-.01zm-.04-20.17a.3.3 0 0 0-.02-.01l.02.01zm-.06.74c0 .06-.02.12-.05.17a.48.48 0 0 1-.6.22.46.46 0 0 1-.23-.63.46.46 0 0 1 .63-.2c.17.08.26.27.25.44zm-.1-.86l-.02-.01h.01zm-.01 0h-.02.02zm-.07-.07zm-.02.04h-.02.02zm-.08 29.25c0 .17-.1.34-.27.42-.24.11-.52 0-.62-.26a.46.46 0 0 1 .27-.6c.25-.09.5.04.6.26.02.06.03.12.02.18zm-.02-29.27zm-.02 23.45c0 .06 0 .12-.03.18a.48.48 0 0 1-.58.28.46.46 0 0 1-.28-.61c.1-.26.37-.38.6-.27.18.08.29.25.29.42zm-.02-16.2c0 .18-.1.35-.28.43a.46.46 0 0 1-.61-.28.46.46 0 0 1 .28-.6c.25-.08.5.06.59.28.02.06.03.12.02.18zm0 .78h-.02.01zm-.2.06zm-.02.02a.91.91 0 0 0-.04.02l.04-.02zm-.07.01zm-.02.04l-.02.01.02-.01zm-.05-.02zm-.03-5v.08a.48.48 0 0 1-.53.39.45.45 0 0 1-.4-.54c.05-.28.3-.44.56-.38.21.04.36.24.37.44zm-.01 24.43c-.01.2-.16.4-.38.45a.46.46 0 0 1-.54-.39.45.45 0 0 1 .4-.54.48.48 0 0 1 .52.48zm-.02-2.37v.04a.48.48 0 0 1-.52.4.46.46 0 0 1-.4-.53.46.46 0 0 1 .54-.4c.23.05.39.27.38.49zm0-.87zm-.07-19.4c0 .22-.18.42-.42.45a.46.46 0 0 1-.5-.44.46.46 0 0 1 .45-.5l.09.01a.48.48 0 0 1 .38.48zm-.02 19.4h-.01zm-.02.05zm-.04 4.02h-.02.02zm-.02-4.07h-.03.03zm-.02.01zm-.04 4.07l-.03.01h-.01.04zm-.02-24.32h-.02.02zm-.04 20.22h-.01.01zm-.04-20.25l-.05-.01.05.01zm-.02 24.4h-.01.01zm0-.02h-.02.02zm-.03-4.16h-.01.01zm0 0h-.01zm-.05-20.24zm0 24.46h-.01zm-.02-.05zm-.02-4.21zm0 .04h-.01zm-.07 4.17h-.01zm-.09-24.43zm0 0h-.01.01zm-.06.01l-.05.01h.05zm-.12.03h-.01.01z"/>
  <g fill="#e1e1e1" stroke-width=".8" style="line-height:1.25;-inkscape-font-specification:'Oswald, Normal';font-variant-ligatures:normal;font-variant-caps:normal;font-variant-numeric:normal;font-feature-settings:normal;text-align:start" aria-label="Open API" font-family="Oswald" font-size="31.94" font-weight="400" letter-spacing="0" word-spacing="0">
    <path style="-inkscape-font-specification:'Oswald, Normal';font-variant-ligatures:normal;font-variant-caps:normal;font-variant-numeric:normal;font-feature-settings:normal;text-align:start" d="M11.75 31.74q-3.8 0-5.46-2.14-1.63-2.17-1.63-6.26v-9.8q0-4.03 1.66-6.1Q8 5.36 11.75 5.36q3.77 0 5.4 2.1 1.66 2.08 1.66 6.08v9.83q0 4.03-1.66 6.2t-5.4 2.17zm0-2.84q2.02 0 2.72-1.19.7-1.18.7-3.57V12.8q0-2.36-.7-3.48-.7-1.15-2.72-1.15-2.04 0-2.74 1.15-.7 1.12-.7 3.48v11.34q0 2.4.7 3.57.7 1.19 2.74 1.19zM22.07 13h3.42v1.46q1.5-1.72 3.51-1.72 2.52 0 3.35 2.17.87 2.14.87 4.76v4.47q0 3.38-1.06 5.5-1.02 2.07-3.54 2.07-1.63 0-3.13-1.63v7.44h-3.42zm5.88 16.02q1.18 0 1.5-1.18.35-1.21.35-3.7v-4.47q0-2.05-.38-3.13-.39-1.12-1.6-1.12-1.18 0-2.33.96v11.81q1.12.83 2.46.83zM41.4 31.7q-2.14 0-3.32-.8-1.18-.82-1.66-2.42t-.48-4.15v-4.22q0-3.83 1.18-5.58 1.22-1.8 4.28-1.8 2.24 0 3.36.93 1.15.93 1.5 2.62.38 1.66.38 4.5v1.5h-7.28V26q0 1.7.48 2.46.5.73 1.6.73 1.08 0 1.46-.73.39-.77.39-2.3v-1.12h3.32v.7q0 2.91-1.25 4.44-1.24 1.54-3.96 1.54zm1.89-11.27v-1.66q0-1.88-.39-2.68-.35-.83-1.53-.83-.83 0-1.28.38-.41.39-.57 1.28-.16.86-.16 2.52v1zM49.77 13h3.41v1.81q2.2-2.07 4.5-2.07 1.5 0 2.15 1.08.63 1.09.63 2.69v14.94h-3.41V17.5q0-1.06-.32-1.57t-1.15-.51q-1.02 0-2.4 1.15v14.88h-3.41zM90.07 5.58h3.48l5.53 25.87h-3.42l-1.18-6.51H89.2l-1.25 6.51h-3.38zM94 22.35l-2.17-11.66-2.14 11.66zM101.7 5.58h6.42q3.35 0 4.85 1.82 1.54 1.82 1.54 5.34 0 3.16-1.63 4.91-1.63 1.76-4.73 1.76h-2.84v12.04h-3.61zm5.27 11.24q1.6 0 2.46-.35.9-.35 1.28-1.21t.38-2.5q0-1.97-.29-2.9-.29-.92-1.15-1.3-.83-.39-2.65-.39h-1.7v8.65zM117.24 5.58h3.54v25.87h-3.54z"/>
  </g>
</svg>
