<svg xmlns="http://www.w3.org/2000/svg" viewBox="0 0 140.3 39.69" height="150.01" width="530.27"><g transform="translate(-24.69 -77.27)"><path fill="#fff" d="M31.62 10.39h159.84v62.25H31.62z"/><flowRoot style="line-height:1.25" xml:space="preserve" font-style="normal" font-weight="400" font-size="40" font-family="sans-serif" letter-spacing="0" word-spacing="0" fill="#000" fill-opacity="1" stroke="none"><flowRegion><path d="M-80.01 22.39h279.35v142.39H-80.01z"/></flowRegion><flowPara/></flowRoot><path d="M125.34 107.26l-.01-.11a.87.87 0 0 0-.64-.78 8.32 8.32 0 0 0-.03-.17.87.87 0 0 0 .25-.97.96.96 0 0 0-.23-.37c-.16-.2-.3-.4-.43-.63a1.75 1.75 0 0 1-.2-.85.87.87 0 0 0-.78-.96l-.05-.15a.9.9 0 0 0 .28-.89.86.86 0 0 0-.17-.34 1.94 1.94 0 0 1-.29-1.51.86.86 0 0 0 .04-.38.9.9 0 0 0-.58-.73l-.01-.15a.9.9 0 0 0 .48-.87.87.87 0 0 0-.08-.29c-.17-.5-.15-1.08.1-1.53.07-.11.12-.24.14-.36a.9.9 0 0 0-.4-.85l.03-.15a.87.87 0 0 0 .66-1.05c-.06-.53.09-1.1.42-1.51a.87.87 0 0 0-.02-1.24l.06-.16a.9.9 0 0 0 .52-.22.7.7 0 0 0 .25-.3.96.96 0 0 0 .07-.43c.03-.58.18-1.21.46-1.7a.96.96 0 0 0 .14-.42.87.87 0 0 0-.45-.9v-.08-.1c.3-.14.5-.47.45-.89a.95.95 0 0 0-.14-.4 4.03 4.03 0 0 1-.46-1.71c.01-.15-.02-.3-.07-.44a.87.87 0 0 0-.83-.55l-.1-.15a.87.87 0 0 0-.03-1 .96.96 0 0 0-.33-.29 4.5 4.5 0 0 1-1.24-1.27.96.96 0 0 0-.28-.34.87.87 0 0 0-1-.06c-.04-.04-.1-.07-.15-.1a.87.87 0 0 0-.53-.84.95.95 0 0 0-.43-.09 4.02 4.02 0 0 1-1.69-.5.96.96 0 0 0-.4-.15.87.87 0 0 0-.91.43h-.18a.79.79 0 0 0-.13-.21.91.91 0 0 0-.75-.27.96.96 0 0 0-.42.13c-.52.25-1.15.42-1.72.41a.96.96 0 0 0-.43.07.87.87 0 0 0-.57.8l-.16.1a.87.87 0 0 0-1 .01.96.96 0 0 0-.3.32 4.44 4.44 0 0 1-1.3 1.2.96.96 0 0 0-.34.27.87.87 0 0 0-.1 1l-.1.15a.87.87 0 0 0-.85.5.95.95 0 0 0-.1.43c-.05.58-.24 1.2-.54 1.68a.96.96 0 0 0-.17.4c-.07.42.12.76.4.92v.18c-.16.07-.3.2-.4.36a.95.95 0 0 0 .02.93c.24.53.39 1.16.37 1.73-.02.14 0 .3.05.43.14.38.47.6.81.6l.04.11a.9.9 0 0 0-.24.9c.04.13.1.24.2.34.3.42.47 1 .38 1.5a.87.87 0 0 0 .62 1.07l.02.17a.9.9 0 0 0-.4.84c.02.13.06.25.13.36.23.48.29 1.07.1 1.56a.87.87 0 0 0-.08.44c.03.3.22.58.5.72v.16a.9.9 0 0 0-.55.75c-.01.13 0 .26.06.38a2 2 0 0 1-.2 1.54.86.86 0 0 0-.16.36.9.9 0 0 0 .33.86l-.03.16a.9.9 0 0 0-.7.61.86.86 0 0 0-.02.38 2 2 0 0 1-.3 1.15c-.07.1-.16.2-.25.29-.1.1-.19.22-.24.36a.87.87 0 0 0 .22.98l-.05.17a.87.87 0 0 0-.66.75c-.02.15 0 .3.04.43a4.47 4.47 0 0 1 .01 1.78.96.96 0 0 0-.03.43c.07.4.35.67.67.74l.05.18a.87.87 0 0 0-.2.97c.05.14.14.26.24.36.4.43.73.99.88 1.53.03.14.1.28.19.4.25.32.63.42.95.32l.12.12c-.1.32 0 .7.3.96.12.09.26.15.4.19.55.18 1.12.5 1.52.9.1.1.22.19.36.24.38.16.75.06.98-.18l.17.05c.07.32.33.6.73.67.15.03.3.02.44-.02a4.5 4.5 0 0 1 1.77.03c.14.05.29.06.44.04.4-.05.68-.32.75-.64l.18-.05c.22.25.58.37.97.23a.95.95 0 0 0 .36-.24c.44-.38 1-.7 1.56-.84a.96.96 0 0 0 .4-.17.87.87 0 0 0 .34-.95l.13-.11c.1.03.2.05.31.05a.96.96 0 0 0 .85-.72c.2-.55.53-1.11.94-1.5.1-.1.2-.22.26-.36a.87.87 0 0 0-.16-.97l.05-.18a.87.87 0 0 0 .7-.71.96.96 0 0 0-.02-.44 4.41 4.41 0 0 1 .08-1.77c.04-.1.06-.21.06-.32zm-.42-.02c0 .26-.18.45-.42.47a.48.48 0 0 1-.5-.42.48.48 0 0 1 .4-.52.46.46 0 0 1 .52.47zm0-20.15a.3.3 0 0 1 0 .05.46.46 0 0 1-.53.41.48.48 0 0 1-.4-.51.48.48 0 0 1 .5-.42c.24.02.43.22.43.47zm0-1.77c0 .26-.19.46-.43.47a.48.48 0 0 1-.5-.41.48.48 0 0 1 .4-.52c.25-.04.5.13.53.41v.05zm-.1 24.29c0 .03 0 .06-.02.1a.46.46 0 0 1-.55.37.48.48 0 0 1-.35-.55c.04-.23.28-.4.53-.37.22.03.38.22.38.45zm-.12-23.43zm0 .05zm-.09-.03h-.01.01zm-.06 19.31c0 .21-.13.4-.33.45a.48.48 0 0 1-.58-.3.48.48 0 0 1 .28-.59c.24-.1.51.03.6.3.02.04.03.1.03.14zm-.03.84h-.01zm-.01-.05h-.01zm-.08.03h-.02.02zm0 .02h-.02.02zm0 4.16h-.01zm-.1 0h-.01.01zm-.01-4.15l-.04.01h.04zm0-20.17h-.01zm0 24.37h-.01zm0-21.17a.5.5 0 0 1-.44.48c-.08 0-.16-.01-.23-.05a.45.45 0 0 1-.2-.14.5.5 0 0 1-.03-.47c.1-.22.36-.34.6-.25.18.06.3.24.3.43zm-.01-6.36c0 .19-.12.36-.3.43a.48.48 0 0 1-.6-.26c-.09-.22 0-.5.23-.6a.46.46 0 0 1 .63.24.5.5 0 0 1 .04.19zm-.02 28.27a.5.5 0 0 1-.05.19.46.46 0 0 1-.62.24.48.48 0 0 1-.23-.61c.1-.22.37-.34.6-.25.18.07.3.24.3.43zm-.05-.8h-.02.02zm0 .02l-.02-.01h.01zm-.01-4.13h-.03.03zm0-.01h-.03.03zm-.09.04h-.01.01zm0-20.21v.07a.91.91 0 0 0-.55.71c-.02.12 0 .24.04.36.15.5.03.98-.37 1.4a.82.82 0 0 0-.28.67c.01.21.1.41.22.57l-.06.18a.88.88 0 0 0-.76.6.92.92 0 0 0-.04.42c.06.58-.08 1.06-.44 1.6a.92.92 0 0 0-.18.38c-.08.37.06.72.33.91l-.02.17a.87.87 0 0 0-.63.74c-.02.14 0 .28.04.41.16.57.12 1.06-.12 1.68a.92.92 0 0 0-.09.41c0 .39.23.7.54.82l.01.16c-.29.17-.48.5-.43.88.01.14.06.28.14.4.3.5.39 1 .31 1.65a.93.93 0 0 0 .01.42c.1.37.39.6.71.66l.06.16a.88.88 0 0 0-.22.95c.05.13.13.25.23.35.24.25.4.52.52.83.07.2.11.41.11.66a.8.8 0 0 0 .03.36c.1.28.37.51.7.58l.03.15a.91.91 0 0 0-.39.8c.01.13.05.24.12.35.07.13.12.26.15.4.07.34 0 .7-.22 1.05a.82.82 0 0 0-.15.33c-.06.3.07.63.32.85l-.04.14a.91.91 0 0 0-.75.52.82.82 0 0 0-.07.35c0 .52-.26.95-.77 1.24a.82.82 0 0 0-.48.8c0 .1.02.2.06.3l-.11.1a.91.91 0 0 0-.9.08.82.82 0 0 0-.23.28c-.27.45-.7.69-1.29.69a.82.82 0 0 0-.36.04.91.91 0 0 0-.56.72c-.05 0-.1.02-.14.03a.91.91 0 0 0-.83-.37.82.82 0 0 0-.34.13c-.19.1-.38.17-.58.19a1.5 1.5 0 0 1-.87-.22.82.82 0 0 0-.33-.14.91.91 0 0 0-.84.34l-.14-.04a.91.91 0 0 0-.54-.74.82.82 0 0 0-.35-.05 1.4 1.4 0 0 1-1.26-.74.82.82 0 0 0-.22-.28.9.9 0 0 0-.9-.12 7.74 7.74 0 0 1-.1-.1.91.91 0 0 0-.1-.9.82.82 0 0 0-.29-.23 1.4 1.4 0 0 1-.72-1.26c0-.13-.01-.25-.05-.36a.91.91 0 0 0-.73-.54l-.04-.15c.26-.2.4-.53.35-.83a.82.82 0 0 0-.14-.34c-.15-.24-.22-.5-.2-.77 0-.22.07-.45.2-.68.06-.1.1-.22.12-.34a.91.91 0 0 0-.35-.82l.03-.15c.33-.05.6-.27.72-.55a.82.82 0 0 0 .04-.36c0-.13 0-.25.04-.37.07-.43.26-.8.57-1.21.1-.1.16-.23.2-.36a.88.88 0 0 0-.27-.94l.04-.16c.32-.07.6-.33.67-.7a.92.92 0 0 0-.01-.42 2.38 2.38 0 0 1 .21-1.67.92.92 0 0 0 .13-.4.88.88 0 0 0-.47-.85v-.16c.29-.13.5-.4.52-.75v-.07a.92.92 0 0 0-.1-.4 2.33 2.33 0 0 1-.1-1.67.92.92 0 0 0 .04-.42.88.88 0 0 0-.61-.75l-.03-.16a.88.88 0 0 0 .36-.9.92.92 0 0 0-.17-.38 2.33 2.33 0 0 1-.4-1.62.92.92 0 0 0-.04-.41.88.88 0 0 0-.74-.63l-.05-.14v-.02c.2-.26.27-.61.15-.91a.82.82 0 0 0-.2-.3 1.4 1.4 0 0 1-.3-1.43.82.82 0 0 0-.08-.77.98.98 0 0 0-.37-.32v-.16c.31-.11.55-.38.6-.68a.82.82 0 0 0-.03-.35c-.12-.51.03-.99.45-1.4.1-.07.18-.17.23-.27a.91.91 0 0 0-.09-.9l.08-.13c.33.05.66-.07.85-.3.08-.1.13-.21.16-.33.04-.16.11-.3.2-.42.19-.27.48-.47.87-.56a.82.82 0 0 0 .33-.13c.26-.17.4-.5.37-.83l.13-.07c.26.21.61.27.9.16a.82.82 0 0 0 .3-.2 1.4 1.4 0 0 1 1.41-.35.82.82 0 0 0 .96-.28c.05-.06.09-.12.12-.2h.16c.12.31.4.54.69.58.12.01.24 0 .36-.03.5-.14.98 0 1.4.4.08.1.17.18.28.23.28.13.64.08.9-.11l.13.07c-.04.33.09.66.33.85.1.07.2.12.33.14.22.06.42.16.58.31.2.18.34.43.43.73.02.13.07.24.14.34.17.24.5.38.84.35l.07.12a.91.91 0 0 0-.14.9c.05.11.12.21.21.3.38.35.52.84.38 1.4a.82.82 0 0 0-.04.36c.03.3.25.58.55.7v.09zm0 20.17h-.02.01zm0 4.1h-.01l-.02-.01h.02zm-.1-.04zm-.08-.04zm-.28-19.34c0 .05-.01.1-.03.14a.47.47 0 0 1-.58.3.46.46 0 0 1-.3-.6.46.46 0 0 1 .6-.3c.2.07.31.26.3.46zm0-9.02h-.01zm-.03 21.27a.46.46 0 0 1-.9.14.46.46 0 0 1 .28-.6.47.47 0 0 1 .62.46zm-.01-21.16h-.01zm-.03-.05v.01zm0 8.14h-.02.01zm0 .02h-.02.01zm-.06-8.08h-.01.01zm0-.02l-.02.01.02-.01zm-.1-.68c0 .16-.08.3-.21.39a.48.48 0 0 1-.64-.12.48.48 0 0 1 .1-.65c.2-.16.49-.12.65.1.06.1.1.19.1.28zm-.02 8.7l-.02-.02.02.01zm-.01 0h-.02.02zm-.05-7.9h-.01.01zm0-.01h-.02.02zm-.07.06zm-.03 7.73zm-.15 11.56c0 .2-.14.38-.34.43a.46.46 0 0 1-.57-.33.46.46 0 0 1 .33-.58.47.47 0 0 1 .58.48zm-.04.75zm-.04-9a.47.47 0 0 1-.56.45.46.46 0 0 1-.36-.56.46.46 0 0 1 .92.1zm-.01 19.95c0 .1-.04.21-.12.3a.46.46 0 0 1-.67.05.48.48 0 0 1-.03-.64.48.48 0 0 1 .64-.07c.12.09.18.22.18.36zm-.03-10.9H123h.01zm-.07.02l-.03.01h-.02.05zm-.12.05h-.01.01zm0-.02h-.02.02zm-.08.06h-.01zm0-7.41a.47.47 0 0 1-.52.45.46.46 0 0 1-.4-.53.46.46 0 0 1 .52-.4c.24.04.4.25.4.48zm-.02 7.37h-.01.01zm-.03-3.25c0 .23-.17.44-.4.48a.46.46 0 0 1-.52-.42.46.46 0 0 1 .4-.52.47.47 0 0 1 .52.46zm-.06 3.25zm-.02-8.25h-.02.02zm-.03 3.24c0 .25-.2.46-.45.47a.46.46 0 0 1-.48-.46l.01-.1a.46.46 0 0 1 .46-.37.47.47 0 0 1 .46.46zm-.05-3.24h-.03.03zm-.09 0l-.03-.01h-.02.06zm-.1 4.14zm-.02-4.17l-.02-.01h.02zm0 0h-.02.01zm-.06 4.16h-.02.02zm0-.01h-.02.01zm-.03-4.19h-.02.02zm-.01.05zm-.08-.09zm-.03 19.96zm-.03.04l-.01-.01v.01zm-.03-15.75h-.01.01zm0-.01h-.01.01zm-.01 15.67h-.01.01zm-.01.01l-.01-.01v.01zm-.07-15.65zm0-.04h-.01.01zm-.06 15.54l-.01-.02v.02zm0 0h-.02.01zm-.02-15.47h-.01zm-.03 15.39l-.01-.01zm-.03.03l-.01-.01zm-.02-34.08c0 .1-.04.2-.11.3a.48.48 0 0 1-.64.07.48.48 0 0 1-.1-.64.46.46 0 0 1 .65-.1c.13.1.2.23.2.37zm-.05 34.77c0 .14-.07.27-.2.37a.46.46 0 0 1-.65-.1.48.48 0 0 1 .1-.65c.2-.14.48-.11.65.08.07.09.1.2.1.3zm-.97-35.48zm-.06.06h-.01zm0 7.09a4.29 4.29 0 0 0-4.3-4.29 4.29 4.29 0 0 0-4.28 4.29 4.29 4.29 0 0 0 4.29 4.28 4.29 4.29 0 0 0 4.28-4.28zm0 21.8a4.29 4.29 0 0 0-4.3-4.3 4.29 4.29 0 0 0-4.28 4.3 4.29 4.29 0 0 0 4.29 4.28 4.29 4.29 0 0 0 4.28-4.28zm-.03-29zm-.02.08v.01zm-.01.1zm-.02-.01v0zm-.1.18v0zm-.26-.5c0 .07-.01.14-.05.21a.48.48 0 0 1-.62.22.48.48 0 0 1-.23-.6c.09-.25.37-.36.62-.25.18.08.27.25.28.41zm-.56 7.35a3.3 3.3 0 0 1-3.3 3.3 3.3 3.3 0 0 1-3.29-3.3 3.3 3.3 0 0 1 3.3-3.3 3.3 3.3 0 0 1 3.3 3.3zm0 21.8a3.3 3.3 0 0 1-3.3 3.3 3.3 3.3 0 0 1-3.29-3.3 3.3 3.3 0 0 1 3.3-3.3 3.3 3.3 0 0 1 3.3 3.3zm-.07 7.66c0 .18-.11.36-.31.43a.46.46 0 0 1-.6-.29.48.48 0 0 1 .28-.58c.23-.08.5.03.6.26l.03.18zm-1.2.52zm-.04-.08zm-.04-.08V116v.02zm-.01.09zm0-.08l-.01-.02v.02zm-.02-.1v-.02l-.01-.02v.04zm-.02-.1v-.02.01zm-.33-37.66v.1a.48.48 0 0 1-.53.37.48.48 0 0 1-.4-.5.46.46 0 0 1 .52-.42c.25.04.4.23.41.45zm-.06 37.92c0 .22-.16.41-.4.45a.46.46 0 0 1-.53-.42.48.48 0 0 1 .4-.5.48.48 0 0 1 .53.47zm-1.3-37.98v-.01zm0-.1V78v.03zm0 .19v0zm0-.27l-.01-.03v.03zm-.02.36zm0-.45l-.02-.02.01.02zm-.02.54v0zm-.37-.27c0 .25-.19.47-.43.49a.48.48 0 0 1-.5-.41.46.46 0 0 1 .42-.52c.28-.02.5.18.51.44zm-.67 37.94v.05a.46.46 0 0 1-.55.39.46.46 0 0 1-.38-.55c.06-.25.3-.4.54-.37.22.04.4.24.39.48zm-1.3-.41v0zm0 .08l-.01.02v-.02zm-.02.08l-.01.03v-.03zm-.03.13v0zm-.01.1zm0-.1h-.01zm-.05.08zm-.24-37.35c0 .2-.11.39-.3.46a.48.48 0 0 1-.6-.25c-.1-.23 0-.5.26-.61a.46.46 0 0 1 .64.4zm-.05 36.91a.46.46 0 0 1-.64.4.46.46 0 0 1-.26-.62c.11-.23.39-.33.6-.24.19.08.3.26.3.46zm-1.15-36.33v-.01.01zm-.01-.09l-.01-.01.01.01zm-.01.01v-.02.02zm-.03-.07l-.02-.03v-.02.02l.02.03zm-.06-.12v-.02.02zm0 0h-.02.01zm-.03-.1zm-.04.03zm-.19.62c0 .15-.07.3-.2.38-.2.13-.48.09-.64-.11a.46.46 0 0 1 .12-.66.46.46 0 0 1 .72.4zm-.54 34.84c0 .1-.03.18-.09.26a.46.46 0 0 1-.66.08.46.46 0 0 1-.07-.67c.17-.19.46-.2.65-.05.11.09.18.24.17.38zm-.85-17.26v.07a.46.46 0 0 1-.47.4.47.47 0 0 1 0-.93c.25-.01.46.2.47.46zm-.05 1.76v.05a.46.46 0 0 1-.5.43.47.47 0 0 1-.43-.5.47.47 0 0 1 .49-.43c.24 0 .43.2.44.45zm-.1-4.15c0 .25-.18.45-.42.47a.47.47 0 0 1-.1-.93.46.46 0 0 1 .52.46zm-.04 3.24zm0 15.71l-.02.01h.01zm-.08-15.64h-.02.02zm0-.05h-.02.02zm-.05 15.83zm-.02 0l-.01.01h.01zm-.02-15.8h-.02.02zm0-16.91c0 .12-.02.23-.1.33a.48.48 0 0 1-.64.08.46.46 0 0 1-.08-.66.46.46 0 0 1 .82.25zm0 20.15l-.01.1a.46.46 0 0 1-.55.37.47.47 0 0 1-.36-.55.47.47 0 0 1 .53-.37c.23.03.38.23.39.45zm0-3.25h-.02.01zm-.04 15.13a.46.46 0 0 1-.82.24.46.46 0 0 1 .09-.66c.2-.14.5-.1.64.1.07.09.1.2.1.32zm-.03-20.15c0 .23-.15.42-.37.46a.47.47 0 0 1-.18-.92.46.46 0 0 1 .55.46zm-.1.86h-.02.02zm-.04 4.15h-.02.02zm0 .01h-.01.01zm-.06-4.16h-.01.01zm0-.02h-.01zm-.03 4.15h-.02.02zm0 .05h-.02.02zm-.1-.07zm-.02 5.02c0 .04 0 .1-.02.14a.46.46 0 0 1-.58.32.47.47 0 0 1-.31-.58.47.47 0 0 1 .57-.32c.2.05.34.23.34.44zm-.05-9.1h-.02.02zm0-.01h-.01zm0 8.33h-.01zm-.08-.05H110h.02zm0 .02H110h.02zM110 93.9H110h.01zm0-.04h-.02.01zm-.09.08zm0-3.28c0 .2-.13.39-.33.44a.47.47 0 0 1-.28-.9.48.48 0 0 1 .6.45zm-.01 3.18zm-.09 8.26h-.01.01zm0 0h-.02.02zm-.07-20.12zm-.02 20.08zm0 .04h-.01zm-.04-20.17a.3.3 0 0 0-.02-.02l.02.02zm-.07.74c0 .05-.01.11-.04.17a.48.48 0 0 1-.61.22.46.46 0 0 1-.22-.63.46.46 0 0 1 .63-.21c.17.1.26.27.24.45zm-.1-.87h-.01zm0 .01h-.03.02zm-.07-.07zm-.03.04h-.01.01zm-.07 29.24c0 .18-.1.35-.28.43-.23.1-.5 0-.61-.26a.46.46 0 0 1 .27-.61c.24-.08.5.05.6.27l.02.17zm-.02-29.27zm-.02 23.46c0 .06 0 .12-.03.17a.48.48 0 0 1-.59.28.46.46 0 0 1-.28-.6c.1-.27.38-.38.61-.28.18.08.28.25.29.43zm-.02-16.2c0 .18-.1.35-.28.42a.46.46 0 0 1-.61-.27.46.46 0 0 1 .28-.6c.24-.08.5.06.58.28.02.05.03.11.03.17zm-.01.78h-.01zm-.19.06zm-.02.01a.91.91 0 0 0-.05.03l.05-.03zm-.07.02zm-.02.03l-.02.02.02-.02zm-.05-.02zm-.04-5v.09a.48.48 0 0 1-.52.39.45.45 0 0 1-.4-.54c.05-.28.3-.45.55-.39.22.05.37.24.37.45zm0 24.44c-.01.2-.16.4-.38.45a.46.46 0 0 1-.54-.4.45.45 0 0 1 .4-.53.48.48 0 0 1 .52.48zm-.02-2.38v.05a.48.48 0 0 1-.52.4.46.46 0 0 1-.4-.53.46.46 0 0 1 .54-.4c.23.05.39.26.38.48zm0-.86h-.01zm-.07-19.4c0 .21-.18.41-.42.44a.46.46 0 0 1-.5-.44.46.46 0 0 1 .44-.5l.1.02a.48.48 0 0 1 .38.47zm-.03 19.4zm0 .04h-.01zm-.05 4.03h-.02.02zm-.03-4.08h-.02.02zm-.01.02h-.01.01zm-.04 4.07h-.03v.01h-.02.05zm-.02-24.32l-.02-.01h.02zm-.04 20.21h-.02.02zm-.04-20.24l-.05-.02.05.02zm-.02 24.39h-.01zm0-.01zm-.03-4.17h-.02.02zm0 .01h-.02.01zm-.05-20.25zm-.01 24.46zm-.01-.04h-.01zm-.02-4.22zm-.01.05zm-.07 4.16zm-.08-24.42zm0-.01h-.01zm-.07.02h-.04.04zm-.11.02h-.02.02z" fill="#677fb7"/><g style="line-height:1.25;-inkscape-font-specification:'Oswald, Normal';font-variant-ligatures:normal;font-variant-caps:normal;font-variant-numeric:normal;font-feature-settings:normal;text-align:start" aria-label="API" font-weight="400" font-size="31.94" font-family="Oswald" letter-spacing="0" word-spacing="0" fill="#e1e1e1" stroke-width=".8"><path d="M134.28 84.18h3.48l5.52 25.87h-3.41l-1.19-6.51h-5.27l-1.24 6.51h-3.39zm3.92 16.77l-2.17-11.66-2.14 11.66zM145.9 84.18h6.43q3.35 0 4.85 1.82 1.53 1.82 1.53 5.34 0 3.16-1.63 4.91-1.62 1.76-4.72 1.76h-2.84v12.04h-3.61zm5.28 11.24q1.6 0 2.46-.35.89-.35 1.27-1.21.39-.86.39-2.5 0-1.97-.3-2.9-.28-.92-1.14-1.3-.83-.4-2.65-.4h-1.7v8.66zM161.44 84.18H165v25.87h-3.55z"/></g><g style="line-height:1.25;-inkscape-font-specification:'Oswald, Normal';font-variant-ligatures:normal;font-variant-caps:normal;font-variant-numeric:normal;font-feature-settings:normal;text-align:start" aria-label="Multicycles" font-weight="400" font-size="19.76" font-family="Oswald" letter-spacing="0" word-spacing="0" fill="#e1e1e1" stroke-width=".26"><path style="-inkscape-font-specification:'Oswald, Normal';font-variant-ligatures:normal;font-variant-caps:normal;font-variant-numeric:normal;font-feature-settings:normal;text-align:start" d="M24.98 87.68h2.2L30 100.66l2.85-12.98h2.17l.3 16h-1.8l-.18-11.61-2.7 11.61h-1.27l-2.69-11.61-.17 11.61h-1.82zM39.23 103.84q-.93 0-1.32-.67-.4-.67-.4-1.66v-9.24h2.12v8.6q0 .66.2 1 .2.31.7.31.64 0 1.49-.7v-9.21h2.11v11.41h-2.11v-1.12q-1.37 1.28-2.79 1.28zM46.47 87.68h2.11v16h-2.1zM53.83 103.84q-2.47 0-2.47-2.72v-7.45h-1.2v-1.4h1.2v-3.34h2.11v3.34h1.84v1.4h-1.84v7.3q0 .7.22.98.22.27.83.27.4 0 .77-.06v1.56q-.79.12-1.46.12zM57.02 88.35h2.12v2.22h-2.12zm0 3.92h2.12v11.41h-2.12zM64.52 103.84q-1.34 0-2.07-.53-.74-.55-1.01-1.52-.26-.99-.26-2.5v-2.62q0-1.54.26-2.53.27-.98 1-1.5.74-.53 2.08-.53 1.22 0 1.9.4.69.39.94 1.18.28.77.28 2.01v.68h-1.92v-.7q0-1.12-.25-1.56-.24-.45-.93-.45-.53 0-.8.24-.25.23-.35.77-.1.53-.1 1.56v3.6q0 .98.12 1.51.12.52.38.73.28.2.77.2.73 0 .95-.47.21-.5.21-1.5v-.93h1.92v.79q0 1.86-.69 2.76-.67.91-2.43.91zM69.32 104.93q1.19 0 1.62-.18.46-.18.46-.67 0-.24-.44-2.1l-2.29-9.71h2.14l1.54 8.53 1.48-8.53h2.13l-2.72 12.05q-.28 1.2-1.17 1.72-.89.5-2.49.5h-.26zM80.38 103.84q-1.35 0-2.08-.53-.73-.55-1-1.52-.26-.99-.26-2.5v-2.62q0-1.54.26-2.53.27-.98 1-1.5.73-.53 2.08-.53 1.22 0 1.9.4.69.39.94 1.18.28.77.28 2.01v.68h-1.92v-.7q0-1.12-.25-1.56-.24-.45-.93-.45-.54 0-.8.24-.25.23-.35.77-.1.53-.1 1.56v3.6q0 .98.12 1.51.12.52.38.73.27.2.77.2.73 0 .95-.47.21-.5.21-1.5v-.93h1.92v.79q0 1.86-.7 2.76-.66.91-2.42.91zM85.56 87.68h2.11v16h-2.11zM93.04 103.84q-1.33 0-2.06-.5t-1.03-1.5q-.3-.98-.3-2.56v-2.6q0-2.38.74-3.47.75-1.1 2.65-1.1 1.38 0 2.07.57.71.57.93 1.62.24 1.03.24 2.79V98h-4.5v2.3q0 1.04.29 1.52.31.45.98.45.68 0 .91-.45.24-.48.24-1.42v-.7h2.06v.44q0 1.8-.78 2.74-.77.95-2.44.95zm1.16-6.97v-1.03q0-1.16-.24-1.66-.21-.51-.94-.51-.52 0-.8.24-.25.23-.35.79-.1.53-.1 1.56v.6zM100.86 103.84q-1.39 0-2.26-.87-.85-.87-.96-2.33l1.75-.53q.16 1.1.54 1.64.4.53 1.1.53.56 0 .85-.31.32-.34.32-.9 0-.49-.22-.88-.22-.4-.7-.81L99.3 97.7q-.67-.57-1.04-1.2-.36-.66-.36-1.59 0-1.32.8-2.05.78-.75 2.15-.75 1.3 0 2.03.85.75.83.87 2.15l-1.42.53q-.14-.96-.46-1.46-.31-.51-.95-.51-.5 0-.82.33-.3.34-.3.83 0 .64.57 1.15l2.02 1.86q.77.7 1.18 1.4.44.7.44 1.68 0 1.42-.85 2.17t-2.31.75z"/></g></g></svg>
