<?xml version="1.0" standalone="no"?>
<!DOCTYPE svg PUBLIC "-//W3C//DTD SVG 20010904//EN"
 "http://www.w3.org/TR/2001/REC-SVG-20010904/DTD/svg10.dtd">
<svg version="1.0" xmlns="http://www.w3.org/2000/svg"
 width="500.000000pt" height="500.000000pt" viewBox="0 0 500.000000 500.000000"
 preserveAspectRatio="xMidYMid meet">
<metadata>
Created by potrace 1.11, written by Peter Selinger 2001-2013
</metadata>
<g transform="translate(0.000000,500.000000) scale(0.100000,-0.100000)"
fill="#000000" stroke="none">
<path d="M2340 4791 c-30 -19 -147 -50 -205 -55 -69 -6 -106 -29 -119 -74 -10
-31 -10 -31 -65 -26 -62 6 -73 -1 -136 -80 -16 -21 -62 -63 -102 -92 -75 -56
-98 -95 -83 -139 10 -29 2 -45 -24 -45 -49 0 -82 -44 -92 -125 -7 -55 -22
-100 -54 -165 -31 -64 -32 -99 -2 -140 27 -36 27 -42 2 -57 -10 -7 -24 -30
-30 -50 -10 -33 -8 -47 15 -107 15 -40 28 -100 32 -145 7 -93 24 -128 69 -147
36 -15 41 -23 23 -41 -26 -26 -20 -70 18 -139 34 -62 37 -75 36 -139 -2 -75
21 -135 51 -135 23 0 26 -27 6 -45 -31 -28 -34 -68 -9 -134 22 -61 22 -70 3
-202 -6 -42 -4 -48 27 -78 l32 -33 -25 -21 c-35 -30 -50 -61 -43 -94 18 -93
17 -109 -9 -174 -31 -79 -33 -118 -6 -152 l21 -26 -30 -15 c-43 -23 -61 -54
-61 -106 0 -64 -17 -115 -49 -153 -54 -62 -63 -99 -36 -151 18 -35 19 -46 2
-46 -8 0 -24 -12 -38 -26 -26 -27 -27 -47 -17 -186 3 -38 1 -91 -4 -119 -7
-41 -6 -57 9 -86 10 -20 27 -41 38 -47 31 -17 33 -25 14 -62 -22 -45 -14 -75
40 -146 22 -30 52 -80 66 -113 43 -96 46 -102 69 -114 11 -6 37 -12 56 -14 33
-2 35 -5 37 -39 3 -48 26 -83 66 -98 76 -30 136 -63 181 -100 57 -47 105 -59
141 -36 33 21 40 20 53 -8 14 -31 50 -56 83 -57 13 0 60 2 104 4 44 3 106 1
139 -5 69 -12 119 5 138 47 13 29 20 31 54 9 30 -20 95 -14 121 12 32 32 117
81 172 99 56 18 100 52 102 80 1 8 2 25 3 38 1 18 8 23 40 25 51 4 81 25 101
70 33 74 59 118 95 162 64 78 74 115 44 158 -12 18 -13 26 -4 37 7 8 19 15 26
15 7 0 22 12 31 27 14 22 18 50 19 143 1 63 4 142 9 175 6 53 5 63 -15 88 -12
15 -28 27 -36 27 -18 0 -18 19 2 59 21 43 13 81 -31 140 -42 58 -53 85 -59
150 -6 65 -18 85 -61 105 -39 19 -41 23 -20 46 25 27 21 74 -10 137 -27 52
-30 68 -30 152 0 93 0 93 -33 120 l-32 27 24 23 c32 30 40 69 25 123 -16 62
-13 121 11 174 22 52 20 86 -10 126 l-20 27 28 15 c40 21 52 51 55 137 2 69 7
83 40 137 40 64 44 93 22 132 -20 34 -19 36 14 50 49 20 63 44 77 136 8 47 27
116 43 153 27 63 28 70 15 106 -7 21 -20 42 -28 47 -21 12 -20 27 4 46 36 29
36 80 2 170 -17 43 -34 109 -38 147 -8 76 -35 119 -83 130 -29 6 -29 7 -24 60
6 60 6 61 -104 152 -28 23 -63 62 -79 87 -36 58 -78 81 -131 74 -40 -6 -41 -5
-52 32 -13 44 -44 68 -98 75 -85 12 -136 26 -181 49 -73 37 -121 38 -157 2
l-25 -25 -30 26 c-32 27 -95 40 -120 24z m87 -70 c13 -28 4 -55 -25 -70 -27
-14 -66 9 -70 40 -7 57 70 80 95 30z m193 9 c25 -25 25 -52 0 -75 -41 -37
-106 12 -80 61 11 20 24 28 53 33 4 0 16 -8 27 -19z m-486 -46 c26 -10 37 -39
27 -67 -13 -33 -46 -43 -76 -23 -32 21 -33 60 -3 80 25 18 30 19 52 10z m740
-25 c29 -14 36 -35 22 -67 -13 -31 -51 -39 -76 -17 -24 22 -26 52 -3 77 19 21
24 22 57 7z m-357 -34 c34 -35 34 -35 102 -29 74 7 105 -3 170 -56 33 -27 49
-30 103 -15 25 6 28 4 37 -32 13 -47 31 -65 89 -88 40 -16 92 -65 92 -87 0 -5
7 -25 16 -44 18 -37 58 -64 95 -64 16 0 19 -4 13 -17 -4 -10 -9 -36 -11 -58
-3 -32 1 -46 22 -70 47 -53 54 -75 49 -158 -4 -76 -4 -79 26 -108 16 -17 30
-33 30 -35 0 -3 -12 -16 -27 -29 -27 -22 -28 -28 -28 -113 0 -88 -1 -91 -39
-146 -39 -57 -42 -78 -21 -143 6 -17 1 -24 -27 -37 -47 -22 -59 -48 -63 -130
-3 -57 -11 -84 -39 -141 -41 -80 -44 -112 -16 -148 26 -33 25 -39 -9 -59 -36
-20 -54 -74 -40 -121 13 -44 8 -121 -11 -186 -21 -66 -16 -93 24 -131 19 -19
27 -34 20 -38 -21 -14 -44 -57 -44 -83 0 -15 12 -53 27 -84 21 -48 26 -72 26
-139 -1 -93 13 -128 57 -148 33 -14 36 -24 15 -52 -25 -33 -18 -79 18 -127 51
-66 66 -102 73 -166 5 -60 28 -97 66 -109 23 -7 23 -20 -2 -51 -24 -31 -26
-73 -4 -114 22 -44 20 -99 -7 -150 -25 -49 -26 -90 -4 -122 21 -29 19 -33 -16
-47 -39 -17 -58 -45 -65 -101 -9 -62 -28 -94 -77 -127 -51 -36 -71 -70 -65
-111 5 -31 4 -31 -44 -31 -45 0 -51 -3 -95 -51 -57 -60 -83 -75 -143 -78 -52
-3 -97 -32 -106 -67 -7 -29 -9 -29 -45 -3 -36 26 -75 27 -118 4 -45 -23 -99
-21 -158 5 -52 23 -102 21 -123 -5 -18 -21 -23 -19 -43 18 -23 42 -44 55 -104
63 -60 8 -106 35 -133 80 -26 42 -64 62 -107 57 -32 -3 -33 -2 -31 36 1 46
-19 82 -60 107 -40 23 -65 68 -73 132 -8 57 -26 85 -72 108 l-28 15 21 26 c25
33 26 83 0 132 -22 44 -21 87 4 145 21 51 20 88 -4 119 -26 32 -26 32 10 47
40 17 56 45 65 115 7 64 10 71 63 157 29 48 34 64 29 94 -3 20 -13 44 -22 54
-15 17 -14 19 14 36 47 28 61 68 54 150 -5 67 -1 94 30 178 17 46 8 92 -23
118 -26 21 -25 26 5 49 34 27 41 76 20 139 -22 66 -25 113 -10 170 16 60 3
106 -35 128 -36 20 -36 24 -9 62 26 34 22 93 -8 137 -28 40 -43 102 -42 166 2
66 -18 104 -63 121 -23 8 -28 15 -22 31 20 61 16 93 -16 138 -35 49 -47 105
-33 157 12 45 -1 95 -31 117 l-25 18 35 35 c34 36 37 48 34 131 -3 47 16 95
45 119 41 34 49 74 29 143 -4 12 0 17 14 17 48 0 81 22 103 68 31 66 65 99
120 117 53 18 89 55 89 90 0 31 9 36 40 20 36 -19 74 -11 125 26 48 35 101 45
162 31 35 -8 47 -6 73 9 17 11 33 26 36 34 8 21 13 19 51 -20z m-544 -56 c8
-11 14 -28 12 -37 -2 -9 -4 -20 -4 -24 -1 -3 -14 -11 -30 -16 -39 -14 -71 8
-71 48 0 49 66 69 93 29z m1099 -33 c21 -32 -6 -76 -46 -76 -58 0 -70 83 -16
102 16 6 51 -9 62 -26z m-1294 -178 c6 -52 -62 -79 -92 -37 -18 27 -8 60 25
76 31 16 63 -3 67 -39z m1470 -4 c34 -23 27 -75 -11 -88 -48 -17 -77 15 -63
69 5 20 14 27 46 34 3 0 16 -6 28 -15z m-1593 -140 c36 -36 -5 -100 -56 -87
-34 9 -42 67 -11 91 22 17 47 15 67 -4z m1693 -40 c38 -27 20 -94 -27 -94 -52
0 -76 81 -28 100 30 12 30 12 55 -6z m-1780 -224 c27 -26 28 -44 2 -70 -24
-24 -47 -25 -72 -3 -22 20 -23 51 -1 75 21 24 44 23 71 -2z m1854 -42 c20 -16
24 -36 15 -64 -16 -47 -97 -30 -97 21 0 45 47 70 82 43z m-1855 -178 c16 -33
-3 -64 -43 -68 -45 -6 -74 54 -42 86 21 21 71 10 85 -18z m1870 -44 c9 -28 5
-48 -15 -63 -35 -28 -82 -3 -82 42 0 50 81 67 97 21z m-1818 -210 c20 -24 9
-69 -19 -83 -32 -16 -64 3 -68 41 -4 35 14 56 48 56 15 0 33 -6 39 -14z m1735
-42 c39 -39 -1 -106 -52 -88 -37 13 -43 65 -10 88 28 20 42 20 62 0z m-1658
-162 c16 -32 7 -57 -23 -71 -52 -24 -99 38 -61 79 26 27 68 23 84 -8z m1584
-32 c11 -11 20 -28 20 -37 0 -23 -30 -53 -53 -53 -26 0 -57 28 -57 52 0 22 34
58 55 58 8 0 24 -9 35 -20z m-1526 -219 c19 -16 21 -62 4 -79 -29 -29 -88 -2
-88 39 0 24 33 58 53 55 8 -1 22 -8 31 -15z m1462 -56 c32 -49 -34 -108 -77
-69 -24 22 -24 59 0 83 24 24 56 18 77 -14z m-1422 -158 c19 -29 11 -61 -19
-77 -51 -27 -100 43 -59 84 23 23 61 20 78 -7z m1376 -37 c24 -24 25 -47 3
-72 -20 -22 -41 -23 -69 -3 -19 13 -22 27 -15 68 1 7 37 25 54 26 4 1 16 -8
27 -19z m-1362 -232 c7 -7 12 -24 12 -38 0 -53 -57 -69 -86 -25 -15 23 -15 27
0 50 18 27 54 33 74 13z m1351 -52 c24 -43 -10 -92 -56 -80 -11 3 -26 17 -32
31 -26 58 59 105 88 49z m-1359 -156 c23 -23 25 -39 6 -65 -28 -38 -96 -20
-96 27 0 22 34 58 55 58 8 0 24 -9 35 -20z m1377 -56 c10 -26 -7 -63 -31 -70
-39 -10 -68 12 -64 49 5 54 76 70 95 21z m-1399 -242 c6 -38 -16 -64 -51 -60
-59 6 -69 76 -14 98 27 10 61 -9 65 -38z m1446 -23 c17 -25 9 -56 -20 -76 -44
-28 -98 42 -63 83 18 21 65 17 83 -7z m-1500 -172 c13 -37 -2 -61 -42 -65 -22
-2 -34 3 -45 19 -26 37 1 82 47 77 23 -2 33 -10 40 -31z m1548 -9 c28 -22 31
-55 9 -77 -25 -25 -48 -27 -73 -4 -22 20 -23 51 -1 75 19 21 43 23 65 6z
m-1652 -233 c19 -23 8 -68 -20 -82 -52 -26 -93 44 -51 86 21 21 52 19 71 -4z
m1765 -31 c36 -36 -5 -100 -56 -87 -19 5 -35 38 -30 63 8 41 56 54 86 24z
m-1808 -180 c18 -28 -4 -68 -40 -72 -36 -4 -57 13 -57 49 0 55 65 71 97 23z
m1856 -27 c17 -27 7 -61 -24 -80 -24 -15 -69 16 -69 48 0 52 65 75 93 32z
m-1869 -230 c37 -27 13 -96 -33 -97 -23 0 -51 31 -51 56 0 45 47 68 84 41z
m1864 -65 c6 -38 -16 -64 -51 -60 -59 6 -69 76 -14 98 27 10 61 -9 65 -38z
m-1803 -142 c36 -40 -11 -102 -60 -77 -28 14 -36 29 -29 52 15 48 57 61 89 25z
m1727 -27 c22 -20 23 -42 2 -71 -19 -27 -48 -28 -74 -2 -22 22 -19 59 7 78 23
16 43 15 65 -5z m-1588 -212 c36 -40 -11 -101 -61 -78 -31 14 -38 43 -19 72
20 30 56 33 80 6z m1451 -33 c28 -41 -31 -98 -74 -71 -9 6 -17 24 -19 41 -6
55 60 76 93 30z m-1309 -109 c30 -24 6 -89 -32 -89 -23 0 -51 17 -58 35 -6 17
9 55 27 67 13 8 45 2 63 -13z m1162 -63 c-4 -36 -46 -58 -76 -40 -21 13 -28
60 -12 79 32 39 93 12 88 -39z m-920 -78 c29 -24 3 -88 -37 -88 -49 0 -71 59
-35 95 16 16 46 13 72 -7z m671 -12 c22 -26 9 -69 -22 -80 -33 -12 -56 -1 -68
31 -17 47 58 87 90 49z m-475 -48 c21 -29 20 -44 -4 -68 -31 -31 -90 -10 -90
33 0 51 66 76 94 35z m275 -2 c7 -8 11 -27 9 -43 -4 -33 -48 -54 -76 -37 -21
13 -28 60 -11 80 15 18 63 18 78 0z"/>
<path d="M2320 4241 c-230 -73 -375 -283 -355 -516 17 -210 152 -375 361 -439
60 -19 189 -19 258 -1 138 36 262 140 321 267 122 265 5 563 -266 675 -83 34
-234 41 -319 14z m249 -112 c105 -34 186 -105 232 -204 122 -259 -74 -553
-360 -540 -137 6 -262 87 -320 208 -45 91 -55 180 -31 268 56 207 280 332 479
268z"/>
<path d="M2369 1726 c-241 -41 -417 -266 -404 -516 19 -361 407 -578 729 -407
216 114 316 388 226 617 -86 219 -314 346 -551 306z m244 -140 c78 -34 147
-102 188 -184 31 -61 34 -75 33 -157 0 -115 -25 -183 -96 -261 -78 -85 -165
-124 -278 -125 -314 -1 -495 358 -305 606 55 73 95 101 190 137 69 26 190 19
268 -16z"/>
</g>
</svg>
