<svg xmlns="http://www.w3.org/2000/svg" xmlns:xlink="http://www.w3.org/1999/xlink" width="1200" height="1200">
  <svg fill="#FFF" xmlns="http://www.w3.org/2000/svg" viewBox="0 0 100 100" transform="matrix(.69 0 0 .69 186 186)">
    <path fill="none" d="M51.409 40.201a2.37 2.37 0 0 1 .092-2.418L69.649 9.737H48.422L26.524 50.215h18.219a2.37 2.37 0 0 1 2.296 2.949L39.59 82.618l32.934-41.18H53.49a2.368 2.368 0 0 1-2.081-1.237z"/>
    <path d="M79.585 38.044a2.368 2.368 0 0 0-2.135-1.342H57.843L75.992 8.655A2.37 2.37 0 0 0 74.003 5H47.011c-.87 0-1.669.476-2.083 1.242L20.467 51.457a2.368 2.368 0 0 0 2.083 3.496h19.151l-9.383 37.098a2.369 2.369 0 0 0 4.146 2.06L79.3 40.549a2.368 2.368 0 0 0 .285-2.505zM39.59 82.618l7.449-29.454a2.368 2.368 0 0 0-2.296-2.949H26.524L48.422 9.737h21.227L51.501 37.783a2.368 2.368 0 0 0 1.989 3.655h19.034L39.59 82.618z"/>
  </svg>
</svg>
