<?xml version="1.0" standalone="no"?>
<!DOCTYPE svg PUBLIC "-//W3C//DTD SVG 20010904//EN"
 "http://www.w3.org/TR/2001/REC-SVG-20010904/DTD/svg10.dtd">
<svg version="1.0" xmlns="http://www.w3.org/2000/svg"
 width="572.000000pt" height="572.000000pt" viewBox="0 0 572.000000 572.000000"
 preserveAspectRatio="xMidYMid meet">
<metadata>
Created by potrace 1.11, written by Peter Selinger 2001-2013
</metadata>
<g transform="translate(0.000000,572.000000) scale(0.100000,-0.100000)"
fill="#000000" stroke="none">
<path d="M1754 5451 c-175 -58 -292 -214 -298 -396 -1 -52 18 -136 44 -191 55
-113 163 -199 295 -230 20 -5 128 -6 155 -1 41 7 110 32 110 40 0 4 4 6 8 3
14 -8 118 80 149 126 59 87 73 129 78 231 11 240 -179 436 -420 435 -38 0 -93
-8 -121 -17z"/>
<path d="M1711 4545 c-96 -38 -182 -132 -195 -215 -3 -19 -9 -46 -13 -60 -9
-29 -8 -636 1 -845 3 -77 8 -204 11 -283 4 -132 7 -145 31 -185 42 -66 75 -91
264 -205 84 -50 364 -222 415 -254 22 -14 44 -25 49 -26 5 0 12 -4 15 -9 9
-12 301 -193 312 -193 5 0 9 -4 9 -10 0 -5 4 -10 10 -10 5 0 25 -11 44 -24
l35 -24 -57 -54 c-31 -29 -75 -67 -97 -83 -22 -17 -44 -36 -48 -42 -4 -7 -14
-13 -21 -13 -8 0 -19 -7 -26 -15 -14 -17 -157 -92 -162 -85 -2 3 -21 41 -43
84 -40 79 -114 184 -184 260 -30 32 -95 86 -206 172 -31 24 -237 124 -256 124
-8 0 -19 3 -23 7 -3 4 -12 8 -19 9 -7 2 -37 10 -67 18 -92 25 -139 30 -280 30
-133 1 -234 -8 -277 -25 -13 -5 -23 -6 -23 -4 0 8 -173 -56 -235 -87 -109 -54
-225 -139 -315 -228 -48 -49 -96 -102 -106 -119 -10 -17 -22 -31 -26 -31 -4 0
-8 -7 -8 -15 0 -8 -4 -15 -10 -15 -5 0 -10 -4 -10 -9 0 -5 -17 -38 -38 -72
-68 -116 -119 -262 -140 -409 -13 -86 -6 -332 11 -405 10 -38 19 -80 22 -92
23 -99 117 -286 197 -392 60 -80 186 -200 270 -258 75 -52 253 -143 279 -143
8 0 20 -5 27 -12 7 -7 12 -8 12 -4 0 5 7 3 15 -4 8 -7 15 -10 15 -6 0 3 12 1
26 -5 15 -5 43 -12 63 -15 20 -3 43 -7 51 -11 8 -3 80 -6 160 -8 269 -5 470
52 685 194 89 58 104 71 190 156 74 73 160 189 213 286 29 55 92 224 98 264 1
11 3 20 4 20 1 0 3 7 5 15 1 8 6 33 11 55 4 22 8 119 8 215 l0 175 111 73 c60
41 137 93 170 117 33 24 63 41 66 39 3 -2 5 -18 3 -36 -2 -18 -6 -116 -9 -218
-3 -102 -7 -246 -10 -320 -12 -340 -13 -483 -3 -505 9 -21 30 -32 79 -41 9 -2
32 6 50 19 31 21 43 45 53 107 2 14 9 45 15 69 7 23 10 45 7 48 -3 3 -1 13 3
22 5 9 11 34 14 56 3 22 8 47 11 55 5 14 13 62 21 116 2 11 9 47 16 80 7 32
13 66 14 74 2 8 5 29 9 45 14 68 16 81 21 120 3 22 8 48 11 57 4 15 15 68 48
253 2 11 7 36 10 55 62 354 69 383 113 445 92 132 178 278 251 427 42 87 80
158 83 158 4 0 9 -8 12 -17 5 -15 75 -187 106 -258 5 -11 36 -80 70 -153 l61
-133 -98 -98 c-193 -192 -309 -419 -351 -686 -9 -59 -8 -272 2 -350 14 -107
63 -252 124 -370 71 -135 207 -298 318 -380 22 -17 42 -33 45 -36 12 -15 185
-109 238 -129 31 -12 66 -26 77 -30 45 -18 117 -34 225 -50 81 -12 304 -4 389
14 233 51 436 161 600 326 47 47 95 99 106 114 59 80 152 246 159 281 1 6 4
15 8 20 10 17 49 148 54 185 3 19 8 46 11 60 12 61 11 298 -3 370 -8 41 -16
84 -18 95 -8 48 -67 203 -103 270 -271 508 -867 751 -1416 578 -45 -14 -87
-29 -94 -35 -13 -11 -19 -2 -53 87 -12 33 -28 74 -35 90 -8 17 -22 53 -33 80
-10 28 -23 59 -27 70 -5 11 -9 22 -10 25 -3 8 -24 61 -40 100 -79 196 -135
342 -135 354 0 9 -4 16 -8 16 -5 0 -15 19 -21 42 -22 70 -69 162 -98 190 -26
25 -82 41 -213 63 -19 3 -57 10 -85 15 -87 17 -104 20 -245 45 -19 3 -51 10
-70 14 -19 5 -42 9 -50 9 -8 1 -46 7 -85 16 -38 8 -87 17 -108 21 -43 7 -48
11 -202 180 -61 66 -131 142 -156 170 -26 27 -60 64 -75 81 -16 17 -72 78
-125 135 -53 57 -110 119 -126 137 -79 87 -237 122 -352 77z m508 -823 c25
-23 383 -270 412 -284 20 -10 113 -13 387 -13 355 0 362 0 362 -20 0 -11 -14
-69 -30 -130 -17 -60 -33 -121 -36 -135 -3 -13 -9 -29 -13 -35 -5 -5 -14 -28
-21 -50 -14 -45 -117 -255 -153 -313 -13 -20 -26 -41 -28 -47 -11 -26 -85
-135 -92 -135 -7 0 -98 74 -147 120 -8 8 -38 33 -64 55 -27 22 -64 54 -82 70
-18 17 -50 44 -71 62 -21 17 -49 41 -63 53 -14 12 -45 38 -69 58 -24 21 -53
46 -65 57 -12 11 -46 40 -76 65 -29 25 -58 50 -64 55 -6 6 -39 34 -73 63 l-63
54 0 232 c0 128 3 236 6 239 7 7 19 2 43 -21z m-919 -1376 c30 -3 66 -8 80
-11 14 -3 35 -7 48 -9 35 -7 128 -43 195 -77 120 -59 258 -180 336 -292 32
-47 91 -159 91 -173 0 -16 -285 -144 -319 -144 -10 0 -21 -3 -25 -7 -3 -4 -12
-8 -19 -9 -7 -2 -37 -10 -67 -18 -30 -8 -73 -17 -95 -21 -23 -3 -51 -7 -64
-10 -28 -5 -185 -16 -286 -19 -109 -4 -149 -32 -161 -114 -6 -47 24 -117 62
-145 79 -58 325 -52 579 15 22 5 48 12 57 13 36 7 266 89 327 116 84 38 88 38
85 -13 -7 -107 -15 -167 -28 -216 -8 -29 -14 -53 -14 -55 -1 -1 -5 -15 -11
-30 -6 -16 -11 -31 -11 -33 0 -3 -13 -32 -30 -65 -82 -166 -205 -299 -365
-396 -56 -33 -204 -94 -238 -98 -12 -1 -22 -3 -22 -4 0 -17 -249 -28 -330 -16
-52 8 -166 36 -185 45 -8 4 -40 18 -70 31 -210 89 -401 293 -482 514 -82 223
-81 444 4 660 88 225 269 416 478 504 30 13 63 27 73 32 30 16 139 39 212 45
39 4 71 8 73 9 2 2 12 1 122 -9z m3330 0 c36 -4 83 -12 105 -18 22 -6 42 -12
45 -13 28 -6 98 -34 154 -61 155 -76 286 -200 382 -359 37 -61 93 -197 100
-245 3 -19 8 -38 10 -41 4 -7 15 -113 17 -164 0 -17 -2 -38 -6 -47 -3 -10 -2
-20 4 -23 5 -4 7 -10 5 -14 -3 -4 -8 -30 -12 -57 -31 -230 -169 -466 -359
-611 -32 -24 -210 -129 -210 -123 0 2 -21 -4 -80 -23 -27 -9 -63 -19 -80 -21
-101 -16 -127 -18 -190 -17 -153 2 -257 26 -390 91 -196 95 -335 229 -428 413
-17 34 -32 64 -32 67 -1 3 -4 12 -8 20 -67 172 -78 386 -28 570 36 136 116
280 213 383 l67 72 20 -25 c12 -14 21 -29 21 -33 0 -12 163 -281 172 -285 4
-2 8 -8 8 -12 0 -9 59 -101 70 -110 4 -3 12 -15 19 -28 30 -57 172 -234 245
-304 57 -56 121 -53 193 9 66 58 49 122 -67 243 -40 42 -94 110 -104 131 -5
10 -13 19 -18 19 -4 0 -8 4 -8 9 0 5 -19 42 -43 83 -41 68 -237 451 -237 462
0 4 102 41 107 38 2 0 17 4 35 9 18 5 67 12 108 16 41 3 76 6 77 7 3 3 39 0
123 -8z"/>
<path d="M4055 3593 c-76 -25 -96 -99 -61 -233 9 -36 18 -74 21 -85 2 -11 11
-47 20 -80 9 -33 18 -69 20 -80 2 -11 8 -33 15 -50 6 -16 11 -31 11 -33 -2 -5
12 -61 35 -137 40 -132 51 -135 417 -138 103 -1 187 0 187 3 0 3 17 5 37 4 45
-3 91 15 117 44 17 19 48 130 62 222 3 19 7 37 9 40 4 7 64 328 70 377 8 72
-31 133 -97 151 -60 16 -814 12 -863 -5z"/>
</g>
</svg>
