<svg version="1" xmlns="http://www.w3.org/2000/svg" width="762.667" height="762.667" viewBox="0 0 572.000000 572.000000"><path d="M175.4 26.9c-17.5 5.8-29.2 21.4-29.8 39.6-.1 5.2 1.8 13.6 4.4 19.1 5.5 11.3 16.3 19.9 29.5 23 2 .5 12.8.6 15.5.1 4.1-.7 11-3.2 11-4 0-.4.4-.6.8-.3 1.4.8 11.8-8 14.9-12.6 5.9-8.7 7.3-12.9 7.8-23.1 1.1-24-17.9-43.6-42-43.5-3.8 0-9.3.8-12.1 1.7zM171.1 117.5c-9.6 3.8-18.2 13.2-19.5 21.5-.3 1.9-.9 4.6-1.3 6-.9 2.9-.8 63.6.1 84.5.3 7.7.8 20.4 1.1 28.3.4 13.2.7 14.5 3.1 18.5 4.2 6.6 7.5 9.1 26.4 20.5 8.4 5 36.4 22.2 41.5 25.4 2.2 1.4 4.4 2.5 4.9 2.6.5 0 1.2.4 1.5.9.9 1.2 30.1 19.3 31.2 19.3.5 0 .9.4.9 1 0 .5.4 1 1 1 .5 0 2.5 1.1 4.4 2.4l3.5 2.4-5.7 5.4c-3.1 2.9-7.5 6.7-9.7 8.3-2.2 1.7-4.4 3.6-4.8 4.2-.4.7-1.4 1.3-2.1 1.3-.8 0-1.9.7-2.6 1.5-1.4 1.7-15.7 9.2-16.2 8.5-.2-.3-2.1-4.1-4.3-8.4-4-7.9-11.4-18.4-18.4-26-3-3.2-9.5-8.6-20.6-17.2-3.1-2.4-23.7-12.4-25.6-12.4-.8 0-1.9-.3-2.3-.7-.3-.4-1.2-.8-1.9-.9-.7-.2-3.7-1-6.7-1.8-9.2-2.5-13.9-3-28-3-13.3-.1-23.4.8-27.7 2.5-1.3.5-2.3.6-2.3.4 0-.8-17.3 5.6-23.5 8.7C56.6 327.6 45 336.1 36 345c-4.8 4.9-9.6 10.2-10.6 11.9-1 1.7-2.2 3.1-2.6 3.1-.4 0-.8.7-.8 1.5s-.4 1.5-1 1.5c-.5 0-1 .4-1 .9s-1.7 3.8-3.8 7.2c-6.8 11.6-11.9 26.2-14 40.9-1.3 8.6-.6 33.2 1.1 40.5 1 3.8 1.9 8 2.2 9.2 2.3 9.9 11.7 28.6 19.7 39.2 6 8 18.6 20 27 25.8 7.5 5.2 25.3 14.3 27.9 14.3.8 0 2 .5 2.7 1.2.7.7 1.2.8 1.2.4 0-.5.7-.3 1.5.4s1.5 1 1.5.6c0-.3 1.2-.1 2.6.5 1.5.5 4.3 1.2 6.3 1.5 2 .3 4.3.7 5.1 1.1.8.3 8 .6 16 .8 26.9.5 47-5.2 68.5-19.4 8.9-5.8 10.4-7.1 19-15.6 7.4-7.3 16-18.9 21.3-28.6 2.9-5.5 9.2-22.4 9.8-26.4.1-1.1.3-2 .4-2 .1 0 .3-.7.5-1.5.1-.8.6-3.3 1.1-5.5.4-2.2.8-11.9.8-21.5v-17.5l11.1-7.3c6-4.1 13.7-9.3 17-11.7 3.3-2.4 6.3-4.1 6.6-3.9.3.2.5 1.8.3 3.6s-.6 11.6-.9 21.8c-.3 10.2-.7 24.6-1 32-1.2 34-1.3 48.3-.3 50.5.9 2.1 3 3.2 7.9 4.1.9.2 3.2-.6 5-1.9 3.1-2.1 4.3-4.5 5.3-10.7.2-1.4.9-4.5 1.5-6.9.7-2.3 1-4.5.7-4.8-.3-.3-.1-1.3.3-2.2.5-.9 1.1-3.4 1.4-5.6.3-2.2.8-4.7 1.1-5.5.5-1.4 1.3-6.2 2.1-11.6.2-1.1.9-4.7 1.6-8 .7-3.2 1.3-6.6 1.4-7.4.2-.8.5-2.9.9-4.5 1.4-6.8 1.6-8.1 2.1-12 .3-2.2.8-4.8 1.1-5.7.4-1.5 1.5-6.8 4.8-25.3.2-1.1.7-3.6 1-5.5 6.2-35.4 6.9-38.3 11.3-44.5 9.2-13.2 17.8-27.8 25.1-42.7 4.2-8.7 8-15.8 8.3-15.8.4 0 .9.8 1.2 1.7.5 1.5 7.5 18.7 10.6 25.8.5 1.1 3.6 8 7 15.3l6.1 13.3-9.8 9.8c-19.3 19.2-30.9 41.9-35.1 68.6-.9 5.9-.8 27.2.2 35 1.4 10.7 6.3 25.2 12.4 37 7.1 13.5 20.7 29.8 31.8 38 2.2 1.7 4.2 3.3 4.5 3.6 1.2 1.5 18.5 10.9 23.8 12.9 3.1 1.2 6.6 2.6 7.7 3 4.5 1.8 11.7 3.4 22.5 5 8.1 1.2 30.4.4 38.9-1.4 23.3-5.1 43.6-16.1 60-32.6 4.7-4.7 9.5-9.9 10.6-11.4 5.9-8 15.2-24.6 15.9-28.1.1-.6.4-1.5.8-2 1-1.7 4.9-14.8 5.4-18.5.3-1.9.8-4.6 1.1-6 1.2-6.1 1.1-29.8-.3-37-.8-4.1-1.6-8.4-1.8-9.5-.8-4.8-6.7-20.3-10.3-27-27.1-50.8-86.7-75.1-141.6-57.8-4.5 1.4-8.7 2.9-9.4 3.5-1.3 1.1-1.9.2-5.3-8.7-1.2-3.3-2.8-7.4-3.5-9-.8-1.7-2.2-5.3-3.3-8-1-2.8-2.3-5.9-2.7-7-.5-1.1-.9-2.2-1-2.5-.3-.8-2.4-6.1-4-10-7.9-19.6-13.5-34.2-13.5-35.4 0-.9-.4-1.6-.8-1.6-.5 0-1.5-1.9-2.1-4.2-2.2-7-6.9-16.2-9.8-19-2.6-2.5-8.2-4.1-21.3-6.3-1.9-.3-5.7-1-8.5-1.5-8.7-1.7-10.4-2-24.5-4.5-1.9-.3-5.1-1-7-1.4-1.9-.5-4.2-.9-5-.9-.8-.1-4.6-.7-8.5-1.6-3.8-.8-8.7-1.7-10.8-2.1-4.3-.7-4.8-1.1-20.2-18-6.1-6.6-13.1-14.2-15.6-17-2.6-2.7-6-6.4-7.5-8.1-1.6-1.7-7.2-7.8-12.5-13.5s-11-11.9-12.6-13.7c-7.9-8.7-23.7-12.2-35.2-7.7zm50.8 82.3c2.5 2.3 38.3 27 41.2 28.4 2 1 11.3 1.3 38.7 1.3 35.5 0 36.2 0 36.2 2 0 1.1-1.4 6.9-3 13-1.7 6-3.3 12.1-3.6 13.5-.3 1.3-.9 2.9-1.3 3.5-.5.5-1.4 2.8-2.1 5-1.4 4.5-11.7 25.5-15.3 31.3-1.3 2-2.6 4.1-2.8 4.7-1.1 2.6-8.5 13.5-9.2 13.5-.7 0-9.8-7.4-14.7-12-.8-.8-3.8-3.3-6.4-5.5-2.7-2.2-6.4-5.4-8.2-7-1.8-1.7-5-4.4-7.1-6.2-2.1-1.7-4.9-4.1-6.3-5.3-1.4-1.2-4.5-3.8-6.9-5.8-2.4-2.1-5.3-4.6-6.5-5.7-1.2-1.1-4.6-4-7.6-6.5-2.9-2.5-5.8-5-6.4-5.5-.6-.6-3.9-3.4-7.3-6.3l-6.3-5.4v-23.2c0-12.8.3-23.6.6-23.9.7-.7 1.9-.2 4.3 2.1zM130 337.4c3 .3 6.6.8 8 1.1 1.4.3 3.5.7 4.8.9 3.5.7 12.8 4.3 19.5 7.7 12 5.9 25.8 18 33.6 29.2 3.2 4.7 9.1 15.9 9.1 17.3 0 1.6-28.5 14.4-31.9 14.4-1 0-2.1.3-2.5.7-.3.4-1.2.8-1.9.9-.7.2-3.7 1-6.7 1.8s-7.3 1.7-9.5 2.1c-2.3.3-5.1.7-6.4 1-2.8.5-18.5 1.6-28.6 1.9-10.9.4-14.9 3.2-16.1 11.4-.6 4.7 2.4 11.7 6.2 14.5 7.9 5.8 32.5 5.2 57.9-1.5 2.2-.5 4.8-1.2 5.7-1.3 3.6-.7 26.6-8.9 32.7-11.6 8.4-3.8 8.8-3.8 8.5 1.3-.7 10.7-1.5 16.7-2.8 21.6-.8 2.9-1.4 5.3-1.4 5.5-.1.1-.5 1.5-1.1 3-.6 1.6-1.1 3.1-1.1 3.3 0 .3-1.3 3.2-3 6.5-8.2 16.6-20.5 29.9-36.5 39.6-5.6 3.3-20.4 9.4-23.8 9.8-1.2.1-2.2.3-2.2.4 0 1.7-24.9 2.8-33 1.6-5.2-.8-16.6-3.6-18.5-4.5-.8-.4-4-1.8-7-3.1-21-8.9-40.1-29.3-48.2-51.4-8.2-22.3-8.1-44.4.4-66C43 373 61.1 353.9 82 345.1c3-1.3 6.3-2.7 7.3-3.2 3-1.6 13.9-3.9 21.2-4.5 3.9-.4 7.1-.8 7.3-.9.2-.2 1.2-.1 12.2.9zm333 0c3.6.4 8.3 1.2 10.5 1.8 2.2.6 4.2 1.2 4.5 1.3 2.8.6 9.8 3.4 15.4 6.1 15.5 7.6 28.6 20 38.2 35.9 3.7 6.1 9.3 19.7 10 24.5.3 1.9.8 3.8 1 4.1.4.7 1.5 11.3 1.7 16.4 0 1.7-.2 3.8-.6 4.7-.3 1-.2 2 .4 2.3.5.4.7 1 .5 1.4-.3.4-.8 3-1.2 5.7-3.1 23-16.9 46.6-35.9 61.1-3.2 2.4-21 12.9-21 12.3 0-.2-2.1.4-8 2.3-2.7.9-6.3 1.9-8 2.1-10.1 1.6-12.7 1.8-19 1.7-15.3-.2-25.7-2.6-39-9.1-19.6-9.5-33.5-22.9-42.8-41.3-1.7-3.4-3.2-6.4-3.2-6.7-.1-.3-.4-1.2-.8-2-6.7-17.2-7.8-38.6-2.8-57 3.6-13.6 11.6-28 21.3-38.3l6.7-7.2 2 2.5c1.2 1.4 2.1 2.9 2.1 3.3 0 1.2 16.3 28.1 17.2 28.5.4.2.8.8.8 1.2 0 .9 5.9 10.1 7 11 .4.3 1.2 1.5 1.9 2.8 3 5.7 17.2 23.4 24.5 30.4 5.7 5.6 12.1 5.3 19.3-.9 6.6-5.8 4.9-12.2-6.7-24.3-4-4.2-9.4-11-10.4-13.1-.5-1-1.3-1.9-1.8-1.9-.4 0-.8-.4-.8-.9s-1.9-4.2-4.3-8.3c-4.1-6.8-23.7-45.1-23.7-46.2 0-.4 10.2-4.1 10.7-3.8.2 0 1.7-.4 3.5-.9s6.7-1.2 10.8-1.6c4.1-.3 7.6-.6 7.7-.7.3-.3 3.9 0 12.3.8z"/><path d="M405.5 212.7c-7.6 2.5-9.6 9.9-6.1 23.3.9 3.6 1.8 7.4 2.1 8.5.2 1.1 1.1 4.7 2 8 .9 3.3 1.8 6.9 2 8 .2 1.1.8 3.3 1.5 5 .6 1.6 1.1 3.1 1.1 3.3-.2.5 1.2 6.1 3.5 13.7 4 13.2 5.1 13.5 41.7 13.8 10.3.1 18.7 0 18.7-.3s1.7-.5 3.7-.4c4.5.3 9.1-1.5 11.7-4.4 1.7-1.9 4.8-13 6.2-22.2.3-1.9.7-3.7.9-4 .4-.7 6.4-32.8 7-37.7.8-7.2-3.1-13.3-9.7-15.1-6-1.6-81.4-1.2-86.3.5z"/></svg>